<svg xmlns="http://www.w3.org/2000/svg" xmlns:svg="http://www.w3.org/2000/svg" id="svg7384" width="98" height="98.464" version="1.1"><metadata id="metadata90"/><title id="title9167">Gnome Symbolic Icon Theme</title><g id="layer3" transform="translate(-500.00437,82.42241)"><rect id="rect7610-2" width="95" height="95" x="501.504" y="-80.458" rx="3.804" ry="3.804" style="color:#000;display:inline;overflow:visible;visibility:visible;fill:#fff;fill-opacity:1;fill-rule:nonzero;stroke:#729fcf;stroke-width:3;stroke-miterlimit:4;stroke-dasharray:none;stroke-opacity:1;marker:none;enable-background:new"/><rect id="rect7630-9" width="98" height="98" x="500.004" y="-82.422" style="color:#000;clip-rule:nonzero;display:inline;overflow:visible;visibility:visible;opacity:1;isolation:auto;mix-blend-mode:normal;color-interpolation:sRGB;color-interpolation-filters:linearRGB;solid-color:#000;solid-opacity:1;fill:none;fill-opacity:1;fill-rule:nonzero;stroke:none;stroke-width:.99999976;stroke-linecap:butt;stroke-linejoin:miter;stroke-miterlimit:4;stroke-dasharray:none;stroke-dashoffset:0;stroke-opacity:1;marker:none;marker-start:none;marker-mid:none;marker-end:none;paint-order:normal;color-rendering:auto;image-rendering:auto;shape-rendering:auto;text-rendering:auto;enable-background:accumulate"/><rect id="rect42957-1" width="32" height="32" x="536.437" y="-48.735" style="color:#bebebe;display:inline;overflow:visible;visibility:visible;fill:none;stroke:none;stroke-width:1;marker:none"/><g id="g3771" transform="matrix(0.42486067,0,0,0.42486067,528.31832,-66.422416)" style="fill:#000;fill-opacity:1;fill-rule:nonzero;stroke:none;stroke-miterlimit:4"><g id="g3773" style="fill:#000;fill-opacity:1"><path id="path3775" d="M 86.068,0 C 61.466,0 56.851,35.041 70.691,35.041 84.529,35.041 110.671,0 86.068,0 Z" style="fill:#000;fill-opacity:1"/><path id="path3777" d="M 45.217,30.699 C 52.586,31.149 60.671,2.577 46.821,4.374 32.976,6.171 37.845,30.249 45.217,30.699 Z" style="fill:#000;fill-opacity:1"/><path id="path3779" d="M 11.445,48.453 C 16.686,46.146 12.12,23.581 3.208,29.735 -5.7,35.89 6.204,50.759 11.445,48.453 Z" style="fill:#000;fill-opacity:1"/><path id="path3781" d="M 26.212,36.642 C 32.451,35.37 32.793,9.778 21.667,14.369 10.539,18.961 19.978,37.916 26.212,36.642 Z" style="fill:#000;fill-opacity:1"/><path id="path3783" d="m 58.791,93.913 c 1.107,8.454 -6.202,12.629 -13.36,7.179 C 22.644,83.743 83.16,75.088 79.171,51.386 75.86,31.712 15.495,37.769 8.621,68.553 3.968,89.374 27.774,118.26 52.614,118.26 c 12.22,0 26.315,-11.034 28.952,-25.012 C 83.58,82.589 57.867,86.86 58.791,93.913 Z" style="fill:#000;fill-opacity:1"/></g></g><g id="g3956" transform="matrix(0.16008135,0,0,0.16008135,638.89545,-92.450831)"><path id="path3787" d="m -565.99523,509.46063 c -8.08731,0.21792 -14.47394,3.12448 -19.17071,8.69866 -4.86385,5.80101 -7.31024,13.81651 -7.31024,24.03862 0,10.19394 2.44651,18.18745 7.31024,23.98846 4.88761,5.801 11.59815,8.69866 20.15764,8.69866 8.5831,0 15.3105,-2.89766 20.17436,-8.69866 4.86373,-5.80101 7.29358,-13.79452 7.29353,-23.98846 -5e-5,-10.22211 -2.4298,-18.23761 -7.29353,-24.03862 -4.86386,-5.80075 -11.59131,-8.69866 -20.17436,-8.69866 -0.33434,0 -0.6582,-0.009 -0.98693,0 z m 0.60221,11.77669 c 0.12927,-0.003 0.25357,0 0.38472,0 4.21998,0 7.48996,1.8261 9.8028,5.48697 2.31266,3.66086 3.47944,8.82788 3.47949,15.47362 0,6.61757 -1.16692,11.74604 -3.47949,15.40691 -2.31274,3.66086 -5.58286,5.50352 -9.8028,5.50352 -4.19632,0 -7.43983,-1.84266 -9.75257,-5.50352 -2.31274,-3.66087 -3.47944,-8.78934 -3.47949,-15.40691 0,-6.64574 1.16684,-11.81276 3.47949,-15.47362 2.24035,-3.54647 5.35963,-5.37604 9.36785,-5.48697 z" style="font-style:normal;font-variant:normal;font-weight:700;font-stretch:normal;font-size:148.699646px;line-height:125%;font-family:'Bitstream Vera Sans';text-align:start;writing-mode:lr-tb;text-anchor:start;fill:#000;fill-opacity:1;stroke:none;stroke-width:1.00000003pt;stroke-linecap:butt;stroke-linejoin:miter;stroke-opacity:1"/><path id="path3789" d="m -657.35432,568.97161 c -7.12362,5.98235 -17.72219,5.91366 -22.13752,5.91366 -8.8932,0 -15.93855,-2.92879 -21.13613,-8.78612 -5.19765,-5.88525 -7.7964,-13.85456 -7.7964,-23.90791 0,-10.16578 2.64646,-18.16325 7.93945,-23.99241 5.293,-5.82892 12.54098,-8.74363 21.74413,-8.74363 3.55245,0 6.94991,0.39433 10.19254,1.18273 3.26638,0.78841 6.34203,1.95706 9.22697,3.50595 l -3.70487,10.9527 c -1.62185,-0.88773 -3.4788,-1.76286 -5.20022,-2.37807 -2.93262,-0.98557 -5.87712,-1.47823 -8.83351,-1.47823 -5.48379,0 -9.71581,1.81623 -12.69601,5.44892 -2.95649,3.60454 -4.4347,8.7718 -4.4347,15.50204 0,6.67415 1.4305,11.82733 4.29167,15.46003 2.86099,3.6327 7.16068,5.44892 12.19522,5.44892 5.11476,0 8.28269,-1.28922 9.97226,-2.64762 v -10.91144 h -11.08087 v -10.89809 h 21.45799" style="font-style:normal;font-variant:normal;font-weight:700;font-stretch:normal;font-size:148.699646px;line-height:125%;font-family:'Bitstream Vera Sans';text-align:start;writing-mode:lr-tb;text-anchor:start;fill:#000;fill-opacity:1;stroke:none;stroke-width:1.00000003pt;stroke-linecap:butt;stroke-linejoin:miter;stroke-opacity:1"/><path id="path3793" d="m -528.50252,510.59568 h 17.5241 l 12.15952,39.37066 12.23105,-39.37066 h 14.81181 l 6.69132,63.06461 h -13.01787 l -4.0148,-39.4349 -12.30257,39.62391 h -8.72628 l -12.30263,-40.9623 -4.01479,40.77329 h -13.05365 l 6.69132,-63.06461" style="font-style:normal;font-variant:normal;font-weight:700;font-stretch:normal;font-size:148.699646px;line-height:125%;font-family:'Bitstream Vera Sans';text-align:start;writing-mode:lr-tb;text-anchor:start;fill:#000;fill-opacity:1;stroke:none;stroke-width:1.00000003pt;stroke-linecap:butt;stroke-linejoin:miter;stroke-opacity:1"/><path id="path3795" d="m -455.68828,510.59568 h 37.15811 v 12.29183 h -23.38928 v 13.08097 h 17.97969 v 10.95369 h -17.97969 v 14.44629 h 24.17608 v 12.29183 h -37.94491 v -63.06461" style="font-style:normal;font-variant:normal;font-weight:700;font-stretch:normal;font-size:148.699646px;line-height:125%;font-family:'Bitstream Vera Sans';text-align:start;writing-mode:lr-tb;text-anchor:start;fill:#000;fill-opacity:1;stroke:none;stroke-width:1.00000003pt;stroke-linecap:butt;stroke-linejoin:miter;stroke-opacity:1"/><path id="path3791" d="m -647.94283,510.59568 h 8.6869 l 27.44915,37.90083 v -37.90083 h 11.71533 v 63.06461 h -8.6869 l -27.4491,-37.90083 v 37.90083 h -11.71538 v -63.06461" style="font-style:normal;font-variant:normal;font-weight:700;font-stretch:normal;font-size:148.699646px;line-height:125%;font-family:'Bitstream Vera Sans';text-align:start;writing-mode:lr-tb;text-anchor:start;fill:#000;fill-opacity:1;stroke:none;stroke-width:1.00000003pt;stroke-linecap:butt;stroke-linejoin:miter;stroke-opacity:1"/></g><text id="text3797" x="573.658" y="-8.205" xml:space="preserve" style="font-style:normal;font-weight:400;font-size:3.77335668px;line-height:0%;font-family:'Bitstream Vera Sans';fill:#000;fill-opacity:1;stroke:none;stroke-width:1.00000003pt;stroke-linecap:butt;stroke-linejoin:miter;stroke-opacity:1"><tspan id="tspan3799" x="573.658" y="-8.205" style="letter-spacing:1.36017227"><tspan id="tspan3801" style="letter-spacing:.0310309">TM</tspan></tspan></text></g></svg>