<svg xmlns="http://www.w3.org/2000/svg" width="16" height="16"><g fill="#2e3436" color="#000"><path d="M10.707 5.293L9.293 6.707 11.586 9l-2.293 2.293 1.414 1.414L14.414 9z" font-family="sans-serif" font-weight="400" overflow="visible" white-space="normal" style="line-height:normal;font-variant-ligatures:normal;font-variant-position:normal;font-variant-caps:normal;font-variant-numeric:normal;font-variant-alternates:normal;font-feature-settings:normal;text-indent:0;text-align:start;text-decoration-line:none;text-decoration-style:solid;text-decoration-color:#000;text-transform:none;text-orientation:mixed;shape-padding:0;isolation:auto;mix-blend-mode:normal;marker:none"/><path d="M10 5c.554 0 1 .446 1 1s-.446 1-1 1-1-.446-1-1 .446-1 1-1zM10 11c.554 0 1 .446 1 1s-.446 1-1 1-1-.446-1-1 .446-1 1-1z" overflow="visible" style="marker:none"/><path d="M9 5h1v1H9zM9 12h1v1H9z" overflow="visible" style="marker:none"/><path d="M2 3v4c0 1.333.814 2.275 1.553 2.645C4.29 10.014 5 10 5 10h7V8H5s-.291-.014-.553-.145C4.186 7.725 4 7.667 4 7V3z" font-family="sans-serif" font-weight="400" overflow="visible" white-space="normal" style="line-height:normal;font-variant-ligatures:normal;font-variant-position:normal;font-variant-caps:normal;font-variant-numeric:normal;font-variant-alternates:normal;font-feature-settings:normal;text-indent:0;text-align:start;text-decoration-line:none;text-decoration-style:solid;text-decoration-color:#000;text-transform:none;text-orientation:mixed;shape-padding:0;isolation:auto;mix-blend-mode:normal;marker:none"/></g></svg>