<svg xmlns="http://www.w3.org/2000/svg" width="16" height="16"><g fill="#2e3436" color="#000"><path d="M5.293 5.293L2.586 8l2.707 2.707 1.414-1.414L5.414 8l1.293-1.293z" font-family="sans-serif" font-weight="400" overflow="visible" white-space="normal" style="line-height:normal;font-variant-ligatures:normal;font-variant-position:normal;font-variant-caps:normal;font-variant-numeric:normal;font-variant-alternates:normal;font-feature-settings:normal;text-indent:0;text-align:start;text-decoration-line:none;text-decoration-style:solid;text-decoration-color:#000;text-transform:none;text-orientation:mixed;shape-padding:0;isolation:auto;mix-blend-mode:normal;marker:none"/><path d="M6 10h1v1H6zM6 5h1v1H6z" overflow="visible" style="marker:none"/><path d="M6 5c.554 0 1 .446 1 1s-.446 1-1 1-1-.446-1-1 .446-1 1-1zM6 9c.554 0 1 .446 1 1s-.446 1-1 1-1-.446-1-1 .446-1 1-1z" overflow="visible" style="marker:none"/><path d="M1 3v10h2V3zM4 7v2h8V7z" font-family="sans-serif" font-weight="400" overflow="visible" white-space="normal" style="line-height:normal;font-variant-ligatures:normal;font-variant-position:normal;font-variant-caps:normal;font-variant-numeric:normal;font-variant-alternates:normal;font-feature-settings:normal;text-indent:0;text-align:start;text-decoration-line:none;text-decoration-style:solid;text-decoration-color:#000;text-transform:none;text-orientation:mixed;shape-padding:0;isolation:auto;mix-blend-mode:normal;marker:none"/><path d="M10.707 5.293L9.293 6.707 10.586 8 9.293 9.293l1.414 1.414L13.414 8z" font-family="sans-serif" font-weight="400" overflow="visible" white-space="normal" style="line-height:normal;font-variant-ligatures:normal;font-variant-position:normal;font-variant-caps:normal;font-variant-numeric:normal;font-variant-alternates:normal;font-feature-settings:normal;text-indent:0;text-align:start;text-decoration-line:none;text-decoration-style:solid;text-decoration-color:#000;text-transform:none;text-orientation:mixed;shape-padding:0;isolation:auto;mix-blend-mode:normal;marker:none"/><path d="M10 10H9v1h1zM10 5H9v1h1z" overflow="visible" style="marker:none"/><path d="M10 5c-.554 0-1 .446-1 1s.446 1 1 1 1-.446 1-1-.446-1-1-1zM10 9c-.554 0-1 .446-1 1s.446 1 1 1 1-.446 1-1-.446-1-1-1z" overflow="visible" style="marker:none"/><path d="M13 3v10h2V3z" font-family="sans-serif" font-weight="400" overflow="visible" white-space="normal" style="line-height:normal;font-variant-ligatures:normal;font-variant-position:normal;font-variant-caps:normal;font-variant-numeric:normal;font-variant-alternates:normal;font-feature-settings:normal;text-indent:0;text-align:start;text-decoration-line:none;text-decoration-style:solid;text-decoration-color:#000;text-transform:none;text-orientation:mixed;shape-padding:0;isolation:auto;mix-blend-mode:normal;marker:none"/></g></svg>