<svg xmlns="http://www.w3.org/2000/svg" xmlns:svg="http://www.w3.org/2000/svg" id="svg7384" width="16" height="16" version="1.1"><metadata id="metadata90"/><title id="title9167">Gnome Symbolic Icon Theme</title><g id="layer1" transform="translate(-180,-320)"><path id="rect4323-3" d="m 180,324 c 0,0 0,-1 1,-1 h 14 c 0,0 1,0 1,1 v 8 c 0,1 -1,1 -1,1 h -14 c 0,0 -1,0 -1,-1 z m 2,1 v 6 h 1.75 v -3.25 l 1.25,1.25 1.25,-1.25 V 331 H 188 v -6 h -1.5 l -1.5,1.5 -1.5,-1.5 z m 9,0 v 3 h -1.5 l 2,3 h 1 l 2,-3 H 193 v -3 z" style="display:inline;opacity:1;fill:#2e3436;fill-opacity:1;stroke:none;stroke-width:2;stroke-linecap:round;stroke-linejoin:round;stroke-miterlimit:4;stroke-dasharray:none;stroke-opacity:1;enable-background:new"/></g></svg>