<svg xmlns="http://www.w3.org/2000/svg" xmlns:svg="http://www.w3.org/2000/svg" xmlns:xlink="http://www.w3.org/1999/xlink" id="svg7384" width="98" height="98" version="1.1"><metadata id="metadata90"/><title id="title9167">Gnome Symbolic Icon Theme</title><g id="layer3" transform="translate(0,82)"><flowRoot style="font-size:40px;line-height:125%;font-family:sans-serif;letter-spacing:0;word-spacing:0;writing-mode:lr-tb;fill:#000;stroke-width:1px" id="flowRoot4199" transform="translate(0,-82)" xml:space="preserve"><flowRegion id="flowRegion4201"><rect id="rect4203" width="224" height="63" x="-17" y="-90"/></flowRegion><flowPara id="flowPara4205"/></flowRoot><use style="fill:olive;stroke:red;stroke-width:1.00001812" id="use11112" width="1" height="1" x="0" y="0" transform="matrix(11.90625,0,0,10.78125,-2576.8834,-3422.2809)" xlink:href="#g11497-6-7-9"/><g id="g4341" transform="translate(-2.0067139,0)"><rect style="color:#000;overflow:visible;fill:#fff;stroke:#729fcf;stroke-width:3;marker:none;enable-background:new" id="rect4225" width="95" height="95" x="-218.635" y="-79.656" rx="3.804" ry="3.804"/><path style="opacity:.98999999;fill:none;fill-rule:evenodd;stroke:#729fcf;stroke-width:4.06464338;stroke-linejoin:round" id="path4243-7" d="m -159.57073,-11.608975 0,10.952725 27.93536,0 0,-10.952725"/><path style="fill:#729fcf" id="path4241-5" d="m -202.29131,-73.151209 c -0.24579,-0.0092 -0.54628,-0.0037 -0.80584,0 -3.89331,0.05462 -9.12525,1.480319 -9.03712,6.05384 0.0921,4.772094 4.55104,3.421134 5.99318,4.727707 1.58086,1.377478 1.7818,2.124134 0.0771,4.999812 -1.39207,1.781165 -2.39965,3.720037 -2.15617,5.724231 0.26549,2.636108 1.49643,5.067839 5.98638,5.938545 7.19312,1.394917 14.81191,-3.366252 14.04491,-13.030201 -0.32925,-4.14816 -2.70454,-8.829645 -6.5126,-11.468502 -2.59737,-1.688749 -5.67257,-2.882378 -7.58989,-2.945432 z m -4.31708,2.825118 c 1.52591,0 2.76294,1.239046 2.76294,2.76749 0,1.528442 -1.23703,2.767469 -2.76294,2.767469 -1.52593,0 -2.76293,-1.239027 -2.76293,-2.767469 0,-1.528444 1.237,-2.76749 2.76293,-2.76749 z m 14.04492,8.244782 c 1.01271,0 1.84196,0.826031 1.84196,1.844986 0,1.018938 -0.82925,1.844988 -1.84196,1.844988 -1.01269,0 -1.84194,-0.82605 -1.84194,-1.844988 0,-1.018955 0.82925,-1.844986 1.84194,-1.844986 z m -1.1512,5.53496 c 1.01268,0 1.84194,0.826029 1.84194,1.844986 0,1.018938 -0.82926,1.844967 -1.84194,1.844967 -1.01271,0 -1.84197,-0.826029 -1.84197,-1.844967 0,-1.018957 0.82926,-1.844986 1.84197,-1.844986 z m -9.2098,3.689953 c 1.01268,0 1.84195,0.82605 1.84195,1.844988 0,1.018956 -0.82927,1.844986 -1.84195,1.844986 -1.0127,0 -1.84196,-0.82603 -1.84196,-1.844986 0,-1.018938 0.82926,-1.844988 1.84196,-1.844988 z m 5.52587,0 c 1.0127,0 1.84196,0.82605 1.84196,1.844988 0,1.018956 -0.82926,1.844986 -1.84196,1.844986 -1.0127,0 -1.84196,-0.82603 -1.84196,-1.844986 0,-1.018938 0.82926,-1.844988 1.84196,-1.844988 z"/><path id="path4245-3-6-3" d="m -176.39133,-37.336794 11.4971,11.497099 m -12.50392,-0.942623 1.00682,-10.554476 10.95957,-1.1573" style="fill:none;fill-rule:evenodd;stroke:#729fcf;stroke-width:5;stroke-linecap:round;stroke-linejoin:round"/></g><g id="g4330"><rect id="rect4237" width="95" height="95" x="-346.155" y="-79.656" rx="3.804" ry="3.804" style="color:#000;overflow:visible;fill:#fff;stroke:#729fcf;stroke-width:3;marker:none;enable-background:new"/><rect id="rect4239" width="98" height="98" x="-347.655" y="-81.156" style="color:#000;overflow:visible;color-interpolation-filters:linearRGB;solid-opacity:1;fill:none;stroke-width:.99999976;marker:none;marker-start:none;marker-mid:none;marker-end:none;image-rendering:auto;text-rendering:auto;enable-background:accumulate"/><path style="fill:#729fcf" id="path4241" d="m -329.81049,-73.151209 c -0.24579,-0.0092 -0.54628,-0.0037 -0.80584,0 -3.89331,0.05462 -9.12525,1.480319 -9.03712,6.05384 0.0921,4.772094 4.55104,3.421134 5.99318,4.727707 1.58086,1.377478 1.7818,2.124134 0.0771,4.999812 -1.39207,1.781165 -2.39965,3.720037 -2.15617,5.724231 0.26549,2.636108 1.49643,5.067839 5.98638,5.938545 7.19312,1.394917 14.81191,-3.366252 14.04491,-13.030201 -0.32925,-4.14816 -2.70454,-8.829645 -6.5126,-11.468502 -2.59738,-1.688749 -5.67258,-2.882378 -7.58989,-2.945432 z m -4.31708,2.825118 c 1.52591,0 2.76294,1.239046 2.76294,2.76749 0,1.528442 -1.23703,2.767469 -2.76294,2.767469 -1.52593,0 -2.76293,-1.239027 -2.76293,-2.767469 0,-1.528444 1.237,-2.76749 2.76293,-2.76749 z m 14.04491,8.244782 c 1.01271,0 1.84196,0.826031 1.84196,1.844986 0,1.018938 -0.82925,1.844988 -1.84196,1.844988 -1.01268,0 -1.84194,-0.82605 -1.84194,-1.844988 0,-1.018955 0.82926,-1.844986 1.84194,-1.844986 z m -1.1512,5.53496 c 1.01268,0 1.84194,0.826029 1.84194,1.844986 0,1.018938 -0.82926,1.844967 -1.84194,1.844967 -1.0127,0 -1.84197,-0.826029 -1.84197,-1.844967 0,-1.018957 0.82927,-1.844986 1.84197,-1.844986 z m -9.20979,3.689953 c 1.01268,0 1.84194,0.82605 1.84194,1.844988 0,1.018956 -0.82926,1.844986 -1.84194,1.844986 -1.0127,0 -1.84196,-0.82603 -1.84196,-1.844986 0,-1.018938 0.82926,-1.844988 1.84196,-1.844988 z m 5.52586,0 c 1.0127,0 1.84196,0.82605 1.84196,1.844988 0,1.018956 -0.82926,1.844986 -1.84196,1.844986 -1.0127,0 -1.84196,-0.82603 -1.84196,-1.844986 0,-1.018938 0.82926,-1.844988 1.84196,-1.844988 z"/><path style="opacity:.98999999;fill:none;fill-rule:evenodd;stroke:#729fcf;stroke-width:4.06464338;stroke-linejoin:round" id="path4243" d="m -287.42692,-11.828797 0,10.952725 27.93536,0 0,-10.952725"/><path id="path4245-3-6" d="m -293.39859,-26.975707 -11.4971,-11.497099 m 12.50392,0.942623 -1.00682,10.554476 -10.95957,1.1573" style="fill:none;fill-rule:evenodd;stroke:#729fcf;stroke-width:5;stroke-linecap:round;stroke-linejoin:round"/></g><g id="g4364" transform="translate(253.56406,-125.9534)"><rect style="color:#000;overflow:visible;fill:#fff;stroke:#729fcf;stroke-width:3;marker:none;enable-background:new" id="rect4249" width="95" height="95" x="-348.694" y="46.665" rx="3.804" ry="3.804"/><rect style="color:#000;overflow:visible;color-interpolation-filters:linearRGB;solid-opacity:1;fill:none;stroke-width:.99999976;marker:none;marker-start:none;marker-mid:none;marker-end:none;image-rendering:auto;text-rendering:auto;enable-background:accumulate" id="rect4251" width="98" height="98" x="-350.194" y="45.165"/><path id="path4253" d="m -332.34961,53.170321 c -0.24579,-0.01 -0.54628,-0.004 -0.80584,0 -3.89331,0.0546 -9.12525,1.48032 -9.03712,6.05383 0.0921,4.77211 4.55104,3.42115 5.99318,4.72772 1.58086,1.37747 1.7818,2.12413 0.0771,4.99981 -1.39207,1.78117 -2.39965,3.72004 -2.15616,5.72423 0.26549,2.63612 1.49642,5.06783 5.98637,5.93854 7.19313,1.39492 14.81191,-3.36624 14.04491,-13.03019 -0.32924,-4.14817 -2.70453,-8.82965 -6.5126,-11.46851 -2.59738,-1.68874 -5.67258,-2.88238 -7.58989,-2.94543 z m -4.31708,2.82511 c 1.52592,0 2.76294,1.23906 2.76294,2.76749 0,1.52845 -1.23702,2.76748 -2.76294,2.76748 -1.52593,0 -2.76293,-1.23903 -2.76293,-2.76748 0,-1.52843 1.237,-2.76749 2.76293,-2.76749 z m 14.04491,8.24478 c 1.01271,0 1.84196,0.82604 1.84196,1.845 0,1.01893 -0.82925,1.84498 -1.84196,1.84498 -1.01268,0 -1.84194,-0.82605 -1.84194,-1.84498 0,-1.01896 0.82926,-1.845 1.84194,-1.845 z m -1.1512,5.53497 c 1.01268,0 1.84194,0.82603 1.84194,1.84499 0,1.01893 -0.82926,1.84496 -1.84194,1.84496 -1.0127,0 -1.84196,-0.82603 -1.84196,-1.84496 0,-1.01896 0.82926,-1.84499 1.84196,-1.84499 z m -9.20979,3.68995 c 1.01268,0 1.84195,0.82605 1.84195,1.845 0,1.01895 -0.82927,1.84498 -1.84195,1.84498 -1.0127,0 -1.84196,-0.82603 -1.84196,-1.84498 0,-1.01895 0.82926,-1.845 1.84196,-1.845 z m 5.52587,0 c 1.01269,0 1.84196,0.82605 1.84196,1.845 0,1.01895 -0.82927,1.84498 -1.84196,1.84498 -1.01271,0 -1.84196,-0.82603 -1.84196,-1.84498 0,-1.01895 0.82925,-1.845 1.84196,-1.845 z" style="fill:#729fcf"/><path style="color:#000;font-style:normal;font-variant:normal;font-weight:400;font-stretch:normal;font-size:medium;line-height:normal;font-family:Sans;-inkscape-font-specification:Sans;text-indent:0;text-align:start;text-decoration:none;text-decoration-line:none;letter-spacing:normal;word-spacing:normal;text-transform:none;direction:ltr;block-progression:tb;writing-mode:lr-tb;baseline-shift:baseline;text-anchor:start;overflow:visible;fill:#729fcf;stroke-width:1.99999988;enable-background:accumulate" id="path4257" d="m -282.5684,105.16591 a 2.0001292,2.0001292 0 0 0 -1.62495,1.99993 l 0,25.99909 a 2.0001292,2.0001292 0 0 0 1.99993,1.99992 l 19.99929,0 a 2.0001292,2.0001292 0 0 0 1.99993,-1.99992 l 0,-18.87434 a 2.0001292,2.0001292 0 0 0 -0.56248,-1.43745 l -7.12474,-7.12475 a 2.0001292,2.0001292 0 0 0 -1.43745,-0.56248 l -12.87455,0 a 2.0001292,2.0001292 0 0 0 -0.18739,0 2.0001292,2.0001292 0 0 0 -0.18739,0 z m 2.37491,3.99986 9.99965,0 0,5.99979 5.99978,0 0,15.99944 -15.99943,0 0,-21.99923 z"/><path id="path4245-3" d="m -306.44962,88.984304 11.49709,11.497096 m -12.50391,-0.942621 1.00682,-10.554475 10.95956,-1.157299" style="fill:none;fill-rule:evenodd;stroke:#729fcf;stroke-width:5;stroke-linecap:round;stroke-linejoin:round"/></g></g><g id="layer2"><g style="opacity:.98999999" id="g4258" transform="translate(-156.63793,-520.42474)"><g id="g4308" transform="translate(36.357401,-45.783394)"><rect id="rect4260" width="95" height="95" x="413.562" y="567.259" rx="3.804" ry="3.804" style="color:#000;overflow:visible;fill:#fff;stroke:#729fcf;stroke-width:3;marker:none;enable-background:new"/><g id="g4287" transform="translate(-19.127573,40.370519)"><rect style="color:#000;overflow:visible;color-interpolation-filters:linearRGB;solid-opacity:1;fill:#bdd2e9;fill-opacity:.59358287;stroke-width:5;marker:none;marker-start:none;marker-mid:none;marker-end:none;image-rendering:auto;text-rendering:auto;enable-background:new" id="rect4284" width="15.026" height="15.026" x="442.677" y="557.105" rx="1.241" ry="1.241"/><rect id="rect4286" width="15.026" height="15.026" x="462.677" y="557.105" rx="1.241" ry="1.241" style="color:#000;overflow:visible;color-interpolation-filters:linearRGB;solid-opacity:1;fill:#bdd2e9;fill-opacity:.87165773;stroke-width:5;marker:none;marker-start:none;marker-mid:none;marker-end:none;image-rendering:auto;text-rendering:auto;enable-background:new"/><rect style="color:#000;overflow:visible;color-interpolation-filters:linearRGB;solid-opacity:1;fill:#bdd2e9;fill-opacity:.62566845;stroke-width:5;marker:none;marker-start:none;marker-mid:none;marker-end:none;image-rendering:auto;text-rendering:auto;enable-background:new" id="rect4288" width="15.026" height="15.026" x="482.677" y="557.105" rx="1.241" ry="1.241"/><rect id="rect4290" width="15.026" height="15.026" x="502.677" y="557.105" rx="1.241" ry="1.241" style="color:#000;overflow:visible;color-interpolation-filters:linearRGB;solid-opacity:1;fill:#bdd2e9;stroke-width:5;marker:none;marker-start:none;marker-mid:none;marker-end:none;image-rendering:auto;text-rendering:auto;enable-background:new"/><rect id="rect4292" width="15.026" height="15.026" x="442.677" y="577.105" rx="1.241" ry="1.241" style="color:#000;overflow:visible;color-interpolation-filters:linearRGB;solid-opacity:1;fill:#bdd2e9;fill-opacity:.76470588;stroke-width:5;marker:none;marker-start:none;marker-mid:none;marker-end:none;image-rendering:auto;text-rendering:auto;enable-background:new"/><rect style="color:#000;overflow:visible;color-interpolation-filters:linearRGB;solid-opacity:1;fill:#bdd2e9;fill-opacity:.61497324;stroke-width:5;marker:none;marker-start:none;marker-mid:none;marker-end:none;image-rendering:auto;text-rendering:auto;enable-background:new" id="rect4294" width="15.026" height="15.026" x="462.677" y="577.105" rx="1.241" ry="1.241"/><rect id="rect4296" width="15.026" height="15.026" x="482.677" y="577.105" rx="1.241" ry="1.241" style="color:#000;overflow:visible;color-interpolation-filters:linearRGB;solid-opacity:1;fill:#bdd2e9;stroke-width:5;marker:none;marker-start:none;marker-mid:none;marker-end:none;image-rendering:auto;text-rendering:auto;enable-background:new"/><rect style="color:#000;overflow:visible;color-interpolation-filters:linearRGB;solid-opacity:1;fill:#bdd2e9;fill-opacity:.53475934;stroke-width:5;marker:none;marker-start:none;marker-mid:none;marker-end:none;image-rendering:auto;text-rendering:auto;enable-background:new" id="rect4298" width="15.026" height="15.026" x="502.677" y="577.105" rx="1.241" ry="1.241"/><rect style="color:#000;overflow:visible;color-interpolation-filters:linearRGB;solid-opacity:1;fill:#bdd2e9;fill-opacity:.36363639;stroke-width:5;marker:none;marker-start:none;marker-mid:none;marker-end:none;image-rendering:auto;text-rendering:auto;enable-background:new" id="rect4300" width="15.026" height="15.026" x="442.677" y="597.105" rx="1.241" ry="1.241"/><rect id="rect4302" width="15.026" height="15.026" x="462.677" y="597.105" rx="1.241" ry="1.241" style="color:#000;overflow:visible;color-interpolation-filters:linearRGB;solid-opacity:1;fill:#bdd2e9;stroke-width:5;marker:none;marker-start:none;marker-mid:none;marker-end:none;image-rendering:auto;text-rendering:auto;enable-background:new"/><rect style="color:#000;overflow:visible;color-interpolation-filters:linearRGB;solid-opacity:1;fill:#bdd2e9;fill-opacity:.58823529;stroke-width:5;marker:none;marker-start:none;marker-mid:none;marker-end:none;image-rendering:auto;text-rendering:auto;enable-background:new" id="rect4304" width="15.026" height="15.026" x="482.677" y="597.105" rx="1.241" ry="1.241"/><rect id="rect4306" width="15.026" height="15.026" x="502.677" y="597.105" rx="1.241" ry="1.241" style="color:#000;overflow:visible;color-interpolation-filters:linearRGB;solid-opacity:1;fill:#bdd2e9;stroke-width:5;marker:none;marker-start:none;marker-mid:none;marker-end:none;image-rendering:auto;text-rendering:auto;enable-background:new"/><rect id="rect4275" width="15.026" height="15.026" x="442.677" y="536.647" rx="1.241" ry="1.241" style="color:#000;overflow:visible;color-interpolation-filters:linearRGB;solid-opacity:1;fill:#bdd2e9;stroke-width:5;marker:none;marker-start:none;marker-mid:none;marker-end:none;image-rendering:auto;text-rendering:auto;enable-background:new"/><rect style="color:#000;overflow:visible;color-interpolation-filters:linearRGB;solid-opacity:1;fill:#bdd2e9;fill-opacity:.64171125;stroke-width:5;marker:none;marker-start:none;marker-mid:none;marker-end:none;image-rendering:auto;text-rendering:auto;enable-background:new" id="rect4277" width="15.026" height="15.026" x="462.677" y="536.647" rx="1.241" ry="1.241"/><rect id="rect4279" width="15.026" height="15.026" x="482.677" y="536.647" rx="1.241" ry="1.241" style="color:#000;overflow:visible;color-interpolation-filters:linearRGB;solid-opacity:1;fill:#bdd2e9;fill-opacity:.87700536;stroke-width:5;marker:none;marker-start:none;marker-mid:none;marker-end:none;image-rendering:auto;text-rendering:auto;enable-background:new"/><rect style="color:#000;overflow:visible;color-interpolation-filters:linearRGB;solid-opacity:1;fill:#bdd2e9;fill-opacity:.58288772;stroke-width:5;marker:none;marker-start:none;marker-mid:none;marker-end:none;image-rendering:auto;text-rendering:auto;enable-background:new" id="rect4281" width="15.026" height="15.026" x="502.677" y="536.647" rx="1.241" ry="1.241"/><rect style="fill:#bdd2e9;fill-opacity:.87165773;stroke-width:5;stroke-linecap:round" id="rect4305" width="0" height="0" x="0" y="0" transform="translate(139.85697,525.38877)"/></g></g></g><g id="g4329" transform="translate(-47.116875,-520.42474)"><g id="g4411"><rect style="color:#000;overflow:visible;fill:#fff;stroke:#729fcf;stroke-width:3;marker:none;enable-background:new" id="rect4333" width="95" height="95" x="449.92" y="521.476" rx="3.804" ry="3.804"/><rect style="color:#000;overflow:visible;color-interpolation-filters:linearRGB;solid-opacity:1;fill:#bdd2e9;fill-opacity:.59358287;stroke-width:5;marker:none;marker-start:none;marker-mid:none;marker-end:none;image-rendering:auto;text-rendering:auto;enable-background:new" id="rect4337" width="73.826" height="15.026" x="459.907" y="551.692" rx="0" ry="0"/><rect id="rect4345" width="73.826" height="15.026" x="459.907" y="571.692" rx="0" ry="0" style="color:#000;overflow:visible;color-interpolation-filters:linearRGB;solid-opacity:1;fill:#bdd2e9;fill-opacity:.76470588;stroke-width:5;marker:none;marker-start:none;marker-mid:none;marker-end:none;image-rendering:auto;text-rendering:auto;enable-background:new"/><rect style="color:#000;overflow:visible;color-interpolation-filters:linearRGB;solid-opacity:1;fill:#bdd2e9;fill-opacity:.36363639;stroke-width:5;marker:none;marker-start:none;marker-mid:none;marker-end:none;image-rendering:auto;text-rendering:auto;enable-background:new" id="rect4353" width="73.826" height="15.026" x="459.907" y="591.692" rx="0" ry="0"/><rect id="rect4361" width="72.929" height="15.026" x="460.955" y="530.785" rx="0" ry="0" style="color:#000;overflow:visible;color-interpolation-filters:linearRGB;solid-opacity:1;fill:#bdd2e9;stroke-width:5;marker:none;marker-start:none;marker-mid:none;marker-end:none;image-rendering:auto;text-rendering:auto;enable-background:new"/></g><rect id="rect4369" width="0" height="0" x="157.087" y="519.976" style="fill:#bdd2e9;fill-opacity:.87165773;stroke-width:5;stroke-linecap:round"/></g><rect id="rect9299" width="44.484" height="44.557" x="-96.234" y="-9.783" rx="5.369" ry="0" style="fill:none"/></g><g style="display:none" id="layer1"><flowRoot style="font-size:25px;line-height:125%;font-family:Cantarell;-inkscape-font-specification:'Cantarell, Normal';letter-spacing:0;word-spacing:0;writing-mode:lr-tb;stroke-width:1px" id="flowRoot4214" xml:space="preserve"><flowRegion id="flowRegion4216"><rect style="font-style:normal;font-variant:normal;font-weight:400;font-stretch:normal;font-size:25px;line-height:125%;font-family:Cantarell;-inkscape-font-specification:'Cantarell, Normal';text-align:start;writing-mode:lr-tb;text-anchor:start" id="rect4218" width="392" height="52" x="-350" y="-163"/></flowRegion><flowPara id="flowPara4220"/></flowRoot><flowRoot style="font-size:40px;line-height:125%;font-family:Cantarell;-inkscape-font-specification:'Cantarell, Normal';letter-spacing:0;word-spacing:0;writing-mode:lr-tb;stroke-width:1px" id="flowRoot4222" xml:space="preserve"><flowRegion id="flowRegion4224"><rect id="rect4226" width="401" height="51" x="-125" y="-207"/></flowRegion><flowPara id="flowPara4228"/></flowRoot><flowRoot style="font-size:40px;line-height:125%;font-family:Cantarell;-inkscape-font-specification:'Cantarell, Normal';letter-spacing:0;word-spacing:0;writing-mode:lr-tb;fill:#000;stroke-width:1px" id="flowRoot4230" transform="translate(-82.269891,-320.09006)" xml:space="preserve"><flowRegion id="flowRegion4232"><rect id="rect4234" width="153" height="39" x="-163" y="207"/></flowRegion><flowPara style="font-size:25px;line-height:125%;-inkscape-font-specification:'Cantarell, Normal';text-align:center;writing-mode:lr-tb;text-anchor:middle" id="flowPara4236">palettes</flowPara></flowRoot><flowRoot id="flowRoot4238" transform="translate(-213.25629,-259.76506)" xml:space="preserve" style="font-size:40px;line-height:125%;font-family:Cantarell;-inkscape-font-specification:'Cantarell, Normal';letter-spacing:0;word-spacing:0;writing-mode:lr-tb;fill:#000;stroke-width:1px"><flowRegion id="flowRegion4240"><rect id="rect4242" width="153" height="39" x="-163" y="207"/></flowRegion><flowPara id="flowPara4244" style="font-size:25px;line-height:125%;-inkscape-font-specification:'Cantarell, Normal';text-align:center;writing-mode:lr-tb;text-anchor:middle">save</flowPara></flowRoot><flowRoot style="font-size:40px;line-height:125%;font-family:Cantarell;-inkscape-font-specification:'Cantarell, Normal';letter-spacing:0;word-spacing:0;writing-mode:lr-tb;fill:#000;stroke-width:1px" id="flowRoot4246" transform="translate(-83.970864,-256.4255)" xml:space="preserve"><flowRegion id="flowRegion4248"><rect id="rect4250" width="153" height="39" x="-163" y="207"/></flowRegion><flowPara style="font-size:25px;line-height:125%;-inkscape-font-specification:'Cantarell, Normal';text-align:center;writing-mode:lr-tb;text-anchor:middle" id="flowPara4252">load</flowPara></flowRoot><flowRoot id="flowRoot4358" transform="translate(487,-314.56579)" xml:space="preserve" style="font-size:40px;line-height:125%;font-family:Cantarell;-inkscape-font-specification:'Cantarell, Normal';letter-spacing:0;word-spacing:0;writing-mode:lr-tb;fill:#000;stroke-width:1px"><flowRegion id="flowRegion4360"><rect id="rect4362" width="153" height="39" x="-163" y="207"/></flowRegion><flowPara id="flowPara4364" style="font-size:25px;line-height:125%;-inkscape-font-specification:'Cantarell, Normal';text-align:center;writing-mode:lr-tb;text-anchor:middle">view mode</flowPara></flowRoot><flowRoot style="font-size:40px;line-height:125%;font-family:Cantarell;-inkscape-font-specification:'Cantarell, Normal';letter-spacing:0;word-spacing:0;writing-mode:lr-tb;fill:#000;stroke-width:1px" id="flowRoot4366" transform="translate(535,-254.24079)" xml:space="preserve"><flowRegion id="flowRegion4368"><rect id="rect4370" width="153" height="39" x="-163" y="207"/></flowRegion><flowPara style="font-size:25px;line-height:125%;-inkscape-font-specification:'Cantarell, Normal';text-align:center;writing-mode:lr-tb;text-anchor:middle" id="flowPara4372">swatchs</flowPara></flowRoot><flowRoot id="flowRoot4374" transform="translate(440,-254.21579)" xml:space="preserve" style="font-size:40px;line-height:125%;font-family:Cantarell;-inkscape-font-specification:'Cantarell, Normal';letter-spacing:0;word-spacing:0;writing-mode:lr-tb;fill:#000;stroke-width:1px"><flowRegion id="flowRegion4376"><rect id="rect4378" width="153" height="39" x="-163" y="207"/></flowRegion><flowPara id="flowPara4380" style="font-size:25px;line-height:125%;-inkscape-font-specification:'Cantarell, Normal';text-align:center;writing-mode:lr-tb;text-anchor:middle">list</flowPara></flowRoot><flowRoot id="flowRoot4223" transform="translate(62.974761,-256.4255)" xml:space="preserve" style="font-size:40px;line-height:125%;font-family:Cantarell;-inkscape-font-specification:'Cantarell, Normal';letter-spacing:0;word-spacing:0;writing-mode:lr-tb;fill:#000;stroke-width:1px"><flowRegion id="flowRegion4225"><rect id="rect4227" width="177.307" height="35.685" x="-163" y="207"/></flowRegion><flowPara id="flowPara4229" style="font-size:25px;line-height:125%;-inkscape-font-specification:'Cantarell, Normal';text-align:center;writing-mode:lr-tb;text-anchor:middle">from document</flowPara></flowRoot></g></svg>