<svg xmlns="http://www.w3.org/2000/svg" xmlns:osb="http://www.openswatchbook.org/uri/2009/osb" xmlns:svg="http://www.w3.org/2000/svg" id="svg7384" width="16" height="16" version="1.1"><metadata id="metadata90"/><title id="title9167">Gnome Symbolic Icon Theme</title><defs id="defs7386"><linearGradient id="linearGradient7212" osb:paint="solid"><stop id="stop7214" offset="0" style="stop-color:#000;stop-opacity:1"/></linearGradient></defs><g id="layer9" transform="translate(-483.0002,105)" style="display:inline"><path id="rect6806" d="m 490.5002,-104.01367 c -1.385,0 -2.5,1.115 -2.5,2.5 l 0,5.01367 c 0,1.385 1.115,2.5 2.5,2.5 0.28782,0 0.55949,-0.0578 0.81641,-0.14648 a 4.4999862,4.4999862 0 0 1 1.65429,-2.07227 c 0.0105,-0.0934 0.0293,-0.18496 0.0293,-0.28125 l 0,-5.01367 c 0,-1.385 -1.115,-2.5 -2.5,-2.5 z m -4,4.01367 c -0.27614,0 -0.5,0.22386 -0.5,0.5 l 0,2.96875 c 0,1.96838 1.25801,3.62455 3,4.25 l 0,1.28125 -2,0 c -0.56475,0 -1,0.49007 -1,1 l 0,1 0.84375,0 2.15625,0 3.67773,0 a 4.4999862,4.4999862 0 0 1 -1.67773,-3.5 4.4999862,4.4999862 0 0 1 0.0391,-0.55273 c -0.17687,0.027 -0.35458,0.0527 -0.5391,0.0527 -1.9523,0 -3.5,-1.5671 -3.5,-3.53125 l 0,-2.96872 c 0,-0.27614 -0.22386,-0.5 -0.5,-0.5 z m 8,0 c -0.27614,0 -0.5,0.22386 -0.5,0.5 0,0.069 0.006,0.12768 0.0312,0.1875 l 0,2.56445 a 4.4999862,4.4999862 0 0 1 0.9688,-0.21875 l 0,-2.5332 c 0,-0.27614 -0.22386,-0.5 -0.5,-0.5 z" style="color:#bebebe;font-style:normal;font-variant:normal;font-weight:400;font-stretch:normal;font-size:medium;line-height:normal;font-family:Sans;-inkscape-font-specification:Sans;text-indent:0;text-align:start;text-decoration:none;text-decoration-line:none;letter-spacing:normal;word-spacing:normal;text-transform:none;direction:ltr;block-progression:tb;writing-mode:lr-tb;baseline-shift:baseline;text-anchor:start;display:inline;overflow:visible;visibility:visible;fill:#bebebe;fill-opacity:1;stroke:none;stroke-width:1.00302994;marker:none;enable-background:accumulate"/><circle id="path13459" cx="495.5" cy="-92.5" r="3.5" style="color:#000;clip-rule:nonzero;display:inline;overflow:visible;visibility:visible;opacity:1;isolation:auto;mix-blend-mode:normal;color-interpolation:sRGB;color-interpolation-filters:linearRGB;solid-color:#000;solid-opacity:1;fill:#bebebe;fill-opacity:1;fill-rule:nonzero;stroke:none;stroke-width:1;stroke-linecap:butt;stroke-linejoin:miter;stroke-miterlimit:4;stroke-dasharray:1,2;stroke-dashoffset:0;stroke-opacity:1;marker:none;marker-start:none;marker-mid:none;marker-end:none;paint-order:normal;color-rendering:auto;image-rendering:auto;shape-rendering:auto;text-rendering:auto;enable-background:new"/></g></svg>