<svg xmlns="http://www.w3.org/2000/svg" xmlns:osb="http://www.openswatchbook.org/uri/2009/osb" xmlns:svg="http://www.w3.org/2000/svg" id="svg7384" width="16.042" height="16" version="1.1"><metadata id="metadata90"/><title id="title9167">Gnome Symbolic Icon Theme</title><defs id="defs7386"><linearGradient id="linearGradient7212" osb:paint="solid"><stop id="stop7214" offset="0" style="stop-color:#000;stop-opacity:1"/></linearGradient></defs><g id="layer9" transform="translate(-422.95857,125)" style="display:inline"><path id="path60865-7" d="m 432.97097,-124.96875 c -2.19122,0 -3.98836,1.69816 -3.98836,3.78125 0,3.09857 3.1388,8.12532 3.98836,8.1875 0.84956,0.0622 3.9572,-5.15111 3.9572,-8.1875 0,-2.08309 -1.76597,-3.78125 -3.9572,-3.78125 z M 432.93986,-122 c 0.55067,0 0.99709,0.44772 0.99709,1 0,0.55228 -0.44642,1 -0.99709,1 -0.55067,0 -0.99709,-0.44772 -0.99709,-1 0,-0.55228 0.44642,-1 0.99709,-1 z" style="color:#000;fill:#bebebe;fill-opacity:1;fill-rule:nonzero;stroke:none;stroke-width:1.04170251;marker:none;visibility:visible;display:inline;overflow:visible;enable-background:accumulate"/><path id="path7210" d="m 437.7383,-114 a 0.99718873,1.0001 0 0 0 -0.34275,0.15625 l -4.26878,2.65625 -4.08184,-2.53125 a 0.99718873,1.0001 0 0 0 -1.02825,0 l -4.58037,2.8125 a 1.0073817,1.0103227 0 1 0 1.0594,1.71875 l 4.01952,-2.5 4.08183,2.53125 a 0.99718873,1.0001 0 0 0 1.05941,0 l 4.79849,-3 A 0.99718873,1.0001 0 0 0 437.7383,-114 z" style="font-size:medium;font-style:normal;font-variant:normal;font-weight:400;font-stretch:normal;text-indent:0;text-align:start;text-decoration:none;line-height:normal;letter-spacing:normal;word-spacing:normal;text-transform:none;direction:ltr;block-progression:tb;writing-mode:lr-tb;text-anchor:start;baseline-shift:baseline;color:#000;fill:#bebebe;fill-opacity:1;stroke:none;stroke-width:2;marker:none;visibility:visible;display:inline;overflow:visible;enable-background:accumulate;font-family:Sans;-inkscape-font-specification:Sans"/></g></svg>