<svg xmlns="http://www.w3.org/2000/svg" xmlns:svg="http://www.w3.org/2000/svg" id="svg7384" width="16" height="16" version="1.1"><metadata id="metadata90"/><title id="title9167">Gnome Symbolic Icon Theme</title><g id="layer9" transform="translate(-383.0002,125)" style="display:inline"><path id="path3869" d="m 391.0002,-125 c -4.40643,0 -8,3.59357 -8,8 0,4.40643 3.59357,8 8,8 4.40643,0 8,-3.59357 8,-8 0,-4.40643 -3.59357,-8 -8,-8 z m 0,2 c 3.32555,0 6,2.67445 6,6 0,3.32555 -2.67445,6 -6,6 -3.32555,0 -6,-2.67445 -6,-6 0,-3.32555 2.67445,-6 6,-6 z" style="font-size:medium;font-style:normal;font-variant:normal;font-weight:400;font-stretch:normal;text-indent:0;text-align:start;text-decoration:none;line-height:normal;letter-spacing:normal;word-spacing:normal;text-transform:none;direction:ltr;block-progression:tb;writing-mode:lr-tb;text-anchor:start;baseline-shift:baseline;color:#000;fill:#bebebe;fill-opacity:1;fill-rule:nonzero;stroke:none;stroke-width:2;marker:none;visibility:visible;display:inline;overflow:visible;enable-background:accumulate;font-family:Sans;-inkscape-font-specification:Sans"/><path id="path9013" d="m 2.0387079,1.3786418 a 0.79637027,0.79637027 0 1 1 -1.59274058,0 0.79637027,0.79637027 0 1 1 1.59274058,0 z" transform="matrix(1.883546,0,0,1.883546,382.1602,-126.09672)" style="color:#000;fill:#bebebe;fill-opacity:1;fill-rule:nonzero;stroke:none;stroke-width:1;marker:none;visibility:visible;display:inline;overflow:visible;enable-background:accumulate"/><path id="path9013-9" d="m 2.0387079,1.3786418 a 0.79637027,0.79637027 0 1 1 -1.59274058,0 0.79637027,0.79637027 0 1 1 1.59274058,0 z" transform="matrix(1.8835459,0,0,1.8835459,395.1602,-126.09672)" style="color:#000;fill:#bebebe;fill-opacity:1;fill-rule:nonzero;stroke:none;stroke-width:1;marker:none;visibility:visible;display:inline;overflow:visible;enable-background:accumulate"/><path id="path9013-5" d="m 2.0387079,1.3786418 a 0.79637027,0.79637027 0 1 1 -1.59274058,0 0.79637027,0.79637027 0 1 1 1.59274058,0 z" transform="matrix(1.8835459,0,0,1.8835459,382.1602,-113.09671)" style="color:#000;fill:#bebebe;fill-opacity:1;fill-rule:nonzero;stroke:none;stroke-width:1;marker:none;visibility:visible;display:inline;overflow:visible;enable-background:accumulate"/><path id="path9013-9-1" d="m 2.0387079,1.3786418 a 0.79637027,0.79637027 0 1 1 -1.59274058,0 0.79637027,0.79637027 0 1 1 1.59274058,0 z" transform="matrix(1.883546,0,0,1.883546,395.1602,-113.09671)" style="color:#000;fill:#bebebe;fill-opacity:1;fill-rule:nonzero;stroke:none;stroke-width:1;marker:none;visibility:visible;display:inline;overflow:visible;enable-background:accumulate"/><path id="path9013-7" d="m 2.0387079,1.3786418 a 0.79637027,0.79637027 0 1 1 -1.59274058,0 0.79637027,0.79637027 0 1 1 1.59274058,0 z" transform="matrix(3.7670919,0,0,3.7670919,386.3202,-122.19345)" style="color:#000;fill:#bebebe;fill-opacity:1;fill-rule:nonzero;stroke:none;stroke-width:.5;marker:none;visibility:visible;display:inline;overflow:visible;enable-background:accumulate"/></g></svg>