<svg xmlns="http://www.w3.org/2000/svg" xmlns:svg="http://www.w3.org/2000/svg" id="svg7384" width="16.031" height="16.031" version="1.1"><metadata id="metadata90"/><title id="title9167">Gnome Symbolic Icon Theme</title><g id="layer9" transform="translate(-62.96895,-174.96875)" style="display:inline"><path id="path3908" d="m -174,-39.984375 a 2.015625,2.015625 0 1 1 -4.03125,0 2.015625,2.015625 0 1 1 4.03125,0 z" transform="translate(241.0002,217)" style="color:#000;fill:#bebebe;fill-opacity:1;stroke:none;stroke-width:.99999976;marker:none;visibility:visible;display:inline;overflow:visible;enable-background:new"/><path id="path3910" d="m -174,-39.984375 a 2.015625,2.015625 0 1 1 -4.03125,0 2.015625,2.015625 0 1 1 4.03125,0 z" transform="translate(241.0002,228.9375)" style="color:#000;fill:#bebebe;fill-opacity:1;fill-rule:nonzero;stroke:none;stroke-width:.99999976;marker:none;visibility:visible;display:inline;overflow:visible;enable-background:new"/><path id="path3912" d="m -174,-39.984375 a 2.015625,2.015625 0 1 1 -4.03125,0 2.015625,2.015625 0 1 1 4.03125,0 z" transform="translate(253.0002,228.9375)" style="color:#000;fill:#bebebe;fill-opacity:1;fill-rule:nonzero;stroke:none;stroke-width:.99999976;marker:none;visibility:visible;display:inline;overflow:visible;enable-background:new"/><path id="path3914" d="m -174,-39.984375 a 2.015625,2.015625 0 1 1 -4.03125,0 2.015625,2.015625 0 1 1 4.03125,0 z" transform="translate(253.0002,216.96875)" style="color:#000;fill:#bebebe;fill-opacity:1;fill-rule:nonzero;stroke:none;stroke-width:.99999976;marker:none;visibility:visible;display:inline;overflow:visible;enable-background:new"/><path id="rect3916" d="m 64.03125,176.03125 0,1 0,11.96875 0,1 1,0 11.96875,0 1,0 0,-1 0,-11.96875 0,-1 -1,0 -11.96875,0 -1,0 z m 2,2 9.96875,0 0,9.96875 -9.96875,0 0,-9.96875 z" style="font-size:medium;font-style:normal;font-variant:normal;font-weight:400;font-stretch:normal;text-indent:0;text-align:start;text-decoration:none;line-height:normal;letter-spacing:normal;word-spacing:normal;text-transform:none;direction:ltr;block-progression:tb;writing-mode:lr-tb;text-anchor:start;baseline-shift:baseline;color:#000;fill:#bebebe;fill-opacity:1;stroke:none;stroke-width:2;marker:none;visibility:visible;display:inline;overflow:visible;enable-background:new;font-family:Sans;-inkscape-font-specification:Sans"/><path id="rect3918" d="m 67.9375,180 0,0.5 0,5 0,0.5 0.5,0 5.0625,0 0.5,0 0,-0.5 0,-5 0,-0.5 -0.5,0 -5.0625,0 -0.5,0 z m 1,1 4.0625,0 0,4 -4.0625,0 0,-4 z" style="font-size:medium;font-style:normal;font-variant:normal;font-weight:400;font-stretch:normal;text-indent:0;text-align:start;text-decoration:none;line-height:normal;letter-spacing:normal;word-spacing:normal;text-transform:none;direction:ltr;block-progression:tb;writing-mode:lr-tb;text-anchor:start;baseline-shift:baseline;color:#000;fill:#bebebe;fill-opacity:1;stroke:none;stroke-width:.9999997;marker:none;visibility:visible;display:inline;overflow:visible;enable-background:new;font-family:Sans;-inkscape-font-specification:Sans"/><path id="path3937" d="m -166.5,-31.765625 a 1.265625,1.265625 0 1 1 -2.53125,0 1.265625,1.265625 0 1 1 2.53125,0 z" transform="matrix(1.1975309,0,0,1.1975309,274.38909,223.52469)" style="color:#000;fill:#bebebe;fill-opacity:1;stroke:none;stroke-width:.99999976;marker:none;visibility:visible;display:inline;overflow:visible;enable-background:new"/><path id="path3939" d="m -166.5,-31.765625 a 1.265625,1.265625 0 1 1 -2.53125,0 1.265625,1.265625 0 1 1 2.53125,0 z" transform="matrix(1.1975309,0,0,1.1975309,269.38909,223.52469)" style="color:#000;fill:#bebebe;fill-opacity:1;stroke:none;stroke-width:.99999976;marker:none;visibility:visible;display:inline;overflow:visible;enable-background:new"/><path id="path3941" d="m -166.5,-31.765625 a 1.265625,1.265625 0 1 1 -2.53125,0 1.265625,1.265625 0 1 1 2.53125,0 z" transform="matrix(1.1975309,0,0,1.1975309,269.38909,218.55594)" style="color:#000;fill:#bebebe;fill-opacity:1;stroke:none;stroke-width:.99999976;marker:none;visibility:visible;display:inline;overflow:visible;enable-background:new"/><path id="path3943" d="m -166.5,-31.765625 a 1.265625,1.265625 0 1 1 -2.53125,0 1.265625,1.265625 0 1 1 2.53125,0 z" transform="matrix(1.1975309,0,0,1.1975309,274.45159,218.55594)" style="color:#000;fill:#bebebe;fill-opacity:1;stroke:none;stroke-width:.99999976;marker:none;visibility:visible;display:inline;overflow:visible;enable-background:new"/><path id="path3945" d="m 73.84375,185.1875 -0.6875,0.6875 3.40625,3.4375 0.71875,-0.71875 -3.4375,-3.40625 z" style="font-size:medium;font-style:normal;font-variant:normal;font-weight:400;font-stretch:normal;text-indent:0;text-align:start;text-decoration:none;line-height:normal;letter-spacing:normal;word-spacing:normal;text-transform:none;direction:ltr;block-progression:tb;writing-mode:lr-tb;text-anchor:start;baseline-shift:baseline;color:#000;fill:#bebebe;fill-opacity:1;stroke:none;stroke-width:.99999976;marker:none;visibility:visible;display:inline;overflow:visible;enable-background:new;font-family:Sans;-inkscape-font-specification:Sans"/><path id="path3949" d="m 68.5625,185.1875 -3.40625,3.40625 0.6875,0.71875 3.4375,-3.4375 -0.71875,-0.6875 z" style="font-size:medium;font-style:normal;font-variant:normal;font-weight:400;font-stretch:normal;text-indent:0;text-align:start;text-decoration:none;line-height:normal;letter-spacing:normal;word-spacing:normal;text-transform:none;direction:ltr;block-progression:tb;writing-mode:lr-tb;text-anchor:start;baseline-shift:baseline;color:#000;fill:#bebebe;fill-opacity:1;stroke:none;stroke-width:.99999976;marker:none;visibility:visible;display:inline;overflow:visible;enable-background:new;font-family:Sans;-inkscape-font-specification:Sans"/><path id="path3953" d="m 76.5625,177.1875 -3.40625,3.40625 0.6875,0.71875 3.4375,-3.4375 -0.71875,-0.6875 z" style="font-size:medium;font-style:normal;font-variant:normal;font-weight:400;font-stretch:normal;text-indent:0;text-align:start;text-decoration:none;line-height:normal;letter-spacing:normal;word-spacing:normal;text-transform:none;direction:ltr;block-progression:tb;writing-mode:lr-tb;text-anchor:start;baseline-shift:baseline;color:#000;fill:#bebebe;fill-opacity:1;stroke:none;stroke-width:.99999976;marker:none;visibility:visible;display:inline;overflow:visible;enable-background:new;font-family:Sans;-inkscape-font-specification:Sans"/><path id="path3955" d="m 65.84375,177.1875 -0.6875,0.6875 3.40625,3.4375 0.71875,-0.71875 -3.4375,-3.40625 z" style="font-size:medium;font-style:normal;font-variant:normal;font-weight:400;font-stretch:normal;text-indent:0;text-align:start;text-decoration:none;line-height:normal;letter-spacing:normal;word-spacing:normal;text-transform:none;direction:ltr;block-progression:tb;writing-mode:lr-tb;text-anchor:start;baseline-shift:baseline;color:#000;fill:#bebebe;fill-opacity:1;stroke:none;stroke-width:.99999976;marker:none;visibility:visible;display:inline;overflow:visible;enable-background:new;font-family:Sans;-inkscape-font-specification:Sans"/></g></svg>