<svg xmlns="http://www.w3.org/2000/svg" xmlns:svg="http://www.w3.org/2000/svg" style="enable-background:new" id="svg7384" width="16" height="16" version="1.1"><metadata id="metadata90"/><title id="title8473">Gnome Symbolic Icons</title><g id="layer3" transform="translate(-112,-668)"><path id="path864" d="M 115.71484,669 C 114.22843,669 113,670.22842 113,671.71484 v 8.57032 c 0,1.48641 1.22843,2.71484 2.71484,2.71484 h 8.57032 C 125.77157,683 127,681.77157 127,680.28516 v -8.57032 C 127,670.22842 125.77157,669 124.28516,669 Z m 0,2 h 8.57032 c 0.41301,0 0.71484,0.30182 0.71484,0.71484 v 3.6211 L 124.33594,676 125,676.66406 v 3.6211 c 0,0.413 -0.30183,0.71484 -0.71484,0.71484 h -8.57032 C 115.30183,681 115,680.69816 115,680.28516 v -3.57813 L 115.70703,676 115,675.29297 v -3.57813 C 115,671.30182 115.30183,671 115.71484,671 Z" style="color:#000;font-style:normal;font-variant:normal;font-weight:400;font-stretch:normal;font-size:medium;line-height:normal;font-family:sans-serif;font-variant-ligatures:normal;font-variant-position:normal;font-variant-caps:normal;font-variant-numeric:normal;font-variant-alternates:normal;font-feature-settings:normal;text-indent:0;text-align:start;text-decoration:none;text-decoration-line:none;text-decoration-style:solid;text-decoration-color:#000;letter-spacing:normal;word-spacing:normal;text-transform:none;writing-mode:lr-tb;direction:ltr;text-orientation:mixed;dominant-baseline:auto;baseline-shift:baseline;text-anchor:start;white-space:normal;shape-padding:0;clip-rule:nonzero;display:inline;overflow:visible;visibility:visible;opacity:1;isolation:auto;mix-blend-mode:normal;color-interpolation:sRGB;color-interpolation-filters:linearRGB;solid-color:#000;solid-opacity:1;vector-effect:none;fill:#000;fill-opacity:1;fill-rule:nonzero;stroke:none;stroke-width:2;stroke-linecap:round;stroke-linejoin:round;stroke-miterlimit:4;stroke-dasharray:none;stroke-dashoffset:0;stroke-opacity:1;color-rendering:auto;image-rendering:auto;shape-rendering:auto;text-rendering:auto;enable-background:accumulate"/><path id="path1058" d="M 116.51791,673 116,674.03584 h 1.01396 V 679 H 119 v -6 z m 3.43732,0 v 3.21297 c 0,1.03581 0.77686,1.03581 1.29477,1.03581 h 0.75583 V 679 H 124 V 676.10232 673 h -1.99417 v 3 h -0.72458 c -0.25896,0 -0.25896,-0.25892 -0.25896,-0.25892 V 673 Z" style="font-style:normal;font-variant:normal;font-weight:700;font-stretch:normal;font-size:medium;line-height:1.25;font-family:Montserrat;-inkscape-font-specification:'Montserrat, Bold';font-variant-ligatures:normal;font-variant-caps:normal;font-variant-numeric:normal;font-feature-settings:normal;text-align:start;letter-spacing:0;word-spacing:0;writing-mode:lr-tb;text-anchor:start;display:inline;fill:#241f31;fill-opacity:1;stroke:none;stroke-width:.24999994;enable-background:new"/></g></svg>