<svg xmlns="http://www.w3.org/2000/svg" xmlns:svg="http://www.w3.org/2000/svg" id="svg6558" width="16" height="16" version="1.1"><metadata id="metadata6563"/><g id="layer1"><g id="g11537" transform="translate(-20,-276)" style="display:inline"><path style="color:#bebebe;fill:#2e3436;fill-opacity:1;fill-rule:nonzero;stroke:none;stroke-width:3;marker:none;visibility:visible;display:inline;overflow:visible;enable-background:accumulate" id="rect5238" d="m 26,278 c -0.549959,0 -1,0.45004 -1,1 l 0,1 -3,0 c -0.552014,0 -1,0.45004 -1,1 l 0,8 c 0,0.54996 0.447986,1 1,1 l 12,0 c 0.552014,0 1,-0.45004 1,-1 l 0,-8 c 0,-0.54996 -0.447986,-1 -1,-1 l -3,0 0,-1 c 0,-0.54996 -0.450041,-1 -1,-1 l -4,0 z m 2,3 c 2.209139,0 4,1.79086 4,4 0,2.20914 -1.790861,4 -4,4 -2.209139,0 -4,-1.79086 -4,-4 0,-2.20914 1.790861,-4 4,-4 z m 0,2 c -1.10457,0 -2,0.89543 -2,2 0,1.10457 0.89543,2 2,2 1.10457,0 2,-0.89543 2,-2 0,-1.10457 -0.89543,-2 -2,-2 z"/></g></g></svg>