<svg xmlns="http://www.w3.org/2000/svg" xmlns:svg="http://www.w3.org/2000/svg" style="display:inline;enable-background:new" id="svg11300" width="128" height="128" version="1.0" viewBox="0 0 128 128"><title id="title4162">Adwaita Icon Template</title><metadata id="metadata4"/><g style="display:inline" id="layer1" transform="translate(0,-172)"><g style="display:inline" id="layer9"><g id="g997" transform="translate(-220)"><rect id="rect941" width="104" height="96" x="232" y="194" rx="8" ry="8" style="display:inline;opacity:1;fill:#1a5fb4;fill-opacity:1;stroke:none;stroke-width:8.02499962;stroke-linecap:butt;stroke-linejoin:miter;stroke-miterlimit:4;stroke-dasharray:none;stroke-dashoffset:0;stroke-opacity:1;marker:none;marker-start:none;marker-mid:none;marker-end:none;paint-order:normal;enable-background:new"/><rect id="rect943" width="104" height="104" x="232" y="184" rx="8" ry="8" style="display:inline;opacity:1;fill:#3584e4;fill-opacity:1;stroke:none;stroke-width:8.35268784;stroke-linecap:butt;stroke-linejoin:miter;stroke-miterlimit:4;stroke-dasharray:none;stroke-dashoffset:0;stroke-opacity:1;marker:none;marker-start:none;marker-mid:none;marker-end:none;paint-order:normal;enable-background:new"/><rect style="display:inline;opacity:1;fill:#1a5fb4;fill-opacity:1;stroke:none;stroke-width:8.02499962;stroke-linecap:butt;stroke-linejoin:miter;stroke-miterlimit:4;stroke-dasharray:none;stroke-dashoffset:0;stroke-opacity:1;marker:none;marker-start:none;marker-mid:none;marker-end:none;paint-order:normal;enable-background:new" id="rect945" width="88.125" height="48" x="239.937" y="212"/><path id="path947" d="m 244.00006,192 h 80 c 2.216,0 4,1.784 4,4 v 36 l -4,4 h -80 l -4,-4 v -36 c 0,-2.216 1.784,-4 4,-4 z" style="display:inline;opacity:1;fill:#edece9;fill-opacity:1;stroke:none;stroke-width:8.02499962;stroke-linecap:butt;stroke-linejoin:miter;stroke-miterlimit:4;stroke-dasharray:none;stroke-dashoffset:0;stroke-opacity:1;marker:none;marker-start:none;marker-mid:none;marker-end:none;paint-order:normal;enable-background:new"/><path id="path949" d="m 328.00006,240 v 36 c 0,2.216 -1.784,4 -4,4 h -80 c -2.216,0 -4,-1.784 -4,-4 v -36 l 4,-4 h 80 z" style="display:inline;opacity:1;fill:#f3f2f0;fill-opacity:1;stroke:none;stroke-width:8.02499962;stroke-linecap:butt;stroke-linejoin:miter;stroke-miterlimit:4;stroke-dasharray:none;stroke-dashoffset:0;stroke-opacity:1;marker:none;marker-start:none;marker-mid:none;marker-end:none;paint-order:normal;enable-background:new"/><path id="path951" d="m 240.00006,274 v 2 c 0,2.216 1.784,4 4,4 h 80 c 2.216,0 4,-1.784 4,-4 v -2 c 0,2.216 -1.784,4 -4,4 h -80 c -2.216,0 -4,-1.784 -4,-4 z" style="display:inline;opacity:.1;fill:#000;fill-opacity:1;stroke:none;stroke-width:8.02499962;stroke-linecap:butt;stroke-linejoin:miter;stroke-miterlimit:4;stroke-dasharray:none;stroke-dashoffset:0;stroke-opacity:1;marker:none;marker-start:none;marker-mid:none;marker-end:none;paint-order:normal;enable-background:new"/><path style="font-style:normal;font-variant:normal;font-weight:700;font-stretch:normal;font-size:medium;line-height:1.25;font-family:Montserrat;-inkscape-font-specification:'Montserrat, Bold';font-variant-ligatures:normal;font-variant-caps:normal;font-variant-numeric:normal;font-feature-settings:normal;text-align:start;letter-spacing:0;word-spacing:0;writing-mode:lr-tb;text-anchor:start;display:inline;fill:#241f31;fill-opacity:1;stroke:none;stroke-width:.25;enable-background:new" id="path953" d="m 256,216 -4,8 h 8 v 36 h 10 v -44 z m 21.99999,0 v 20 c 0,8 6.00001,8 10.00001,8 h 14 v 16 h 10 v -24 -20 h -10 v 20 h -12 c -2,0 -2,-2 -2,-2 v -18 z"/><path style="display:inline;opacity:.05;fill:#000;fill-opacity:1;stroke:none;stroke-width:8.02499962;stroke-linecap:butt;stroke-linejoin:miter;stroke-miterlimit:4;stroke-dasharray:none;stroke-dashoffset:0;stroke-opacity:1;marker:none;marker-start:none;marker-mid:none;marker-end:none;paint-order:normal;enable-background:new" id="path955" d="m 328.00006,232 0.0625,-34 c 0.004,-2.216 -1.784,-4 -4,-4 h -80 c -2.216,0 -3.99593,1.784 -4,4 l -0.0625,34 4,4 h 80 z"/><path id="path957" d="m 328.00006,240 0.0625,34 c 0.004,2.216 -1.784,4 -4,4 h -80 c -2.216,0 -3.99593,-1.78399 -4,-4 l -0.0625,-34 4,-4 h 80 z" style="display:inline;opacity:.2;fill:#fff;fill-opacity:1;stroke:none;stroke-width:8.02499962;stroke-linecap:butt;stroke-linejoin:miter;stroke-miterlimit:4;stroke-dasharray:none;stroke-dashoffset:0;stroke-opacity:1;marker:none;marker-start:none;marker-mid:none;marker-end:none;paint-order:normal;enable-background:new"/></g></g></g></svg>