<svg xmlns="http://www.w3.org/2000/svg" xmlns:svg="http://www.w3.org/2000/svg" id="svg11300" width="128" height="128" version="1.0" viewBox="0 0 128 128" style="display:inline;enable-background:new"><title id="title4162">Adwaita Icon Template</title><defs id="defs3"><clipPath id="clipPath9814-1" clipPathUnits="userSpaceOnUse"><path style="fill:#fff;fill-opacity:1;fill-rule:evenodd;stroke:none;stroke-width:.04519286px;stroke-linecap:butt;stroke-linejoin:miter;stroke-opacity:1" id="path9816-0" d="M 596.05078,612 C 591.59109,612 588,615.59109 588,620.05078 v 15.89844 c 0,4.44257 3.56412,8.0214 8,8.04883 V 652 l 8,-8 h 19.94922 C 628.40891,644 632,640.40891 632,635.94922 V 620.05078 C 632,615.59109 628.40891,612 623.94922,612 Z"/></clipPath></defs><metadata id="metadata4"/><g id="layer1" transform="translate(0,-172)" style="display:inline"><g id="layer9" style="display:inline"><g id="g1029" transform="translate(51.00001,15.000001)"><g id="g1639" transform="matrix(-2.0000003,0,0,2.0000003,1245.0002,-1027.0002)" style="display:inline;opacity:1;fill:#3584e4;fill-opacity:1;stroke-width:.12499997;enable-background:new"><path id="path1633" d="m 595.90647,639 v 12.99997 L 608.90642,639 Z" style="fill:#f6f5f4;fill-opacity:1;fill-rule:evenodd;stroke:none;stroke-width:.0056491px;stroke-linecap:butt;stroke-linejoin:miter;stroke-opacity:1"/><rect id="rect1635" width="40" height="32" x="588" y="612" rx="4" ry="4" style="color:#000;clip-rule:nonzero;display:inline;overflow:visible;visibility:visible;opacity:1;color-interpolation:sRGB;color-interpolation-filters:linearRGB;fill:#f6f5f4;fill-opacity:1;fill-rule:nonzero;stroke:none;stroke-width:.01692871;stroke-linecap:round;stroke-linejoin:round;stroke-miterlimit:4;stroke-dasharray:none;stroke-dashoffset:0;stroke-opacity:1;marker:none;color-rendering:auto;image-rendering:auto;shape-rendering:auto;text-rendering:auto;enable-background:accumulate"/></g><g id="g1645" transform="translate(-50.999989,-6.9999854)" style="display:inline;enable-background:new"><path style="fill:#57e389;fill-opacity:1;fill-rule:evenodd;stroke:none;stroke-width:.0112982px;stroke-linecap:butt;stroke-linejoin:miter;stroke-opacity:1" id="path1641" d="m 24.000059,233.99999 v 25.99995 l 25.999924,-25.99995 z"/><rect style="color:#000;clip-rule:nonzero;display:inline;overflow:visible;visibility:visible;opacity:1;color-interpolation:sRGB;color-interpolation-filters:linearRGB;fill:#57e389;fill-opacity:1;fill-rule:nonzero;stroke:none;stroke-width:.03385742;stroke-linecap:round;stroke-linejoin:round;stroke-miterlimit:4;stroke-dasharray:none;stroke-dashoffset:0;stroke-opacity:1;marker:none;color-rendering:auto;image-rendering:auto;shape-rendering:auto;text-rendering:auto;enable-background:accumulate" id="rect1643" width="80" height="64" x="8" y="180" rx="8" ry="8"/></g><path style="display:inline;opacity:1;fill:#deddda;fill-opacity:1;fill-rule:evenodd;stroke:none;stroke-width:.0112982px;stroke-linecap:butt;stroke-linejoin:miter;stroke-opacity:1;enable-background:new" id="path1647" d="m 68.999978,251.00003 v 1.99996 c 0,4.43202 -3.56798,8 -8,8 h -7.999997 v -1.99998 h 7.999997 c 4.43202,0 8,-3.56797 8,-7.99998 z m -79.999986,0 c 0,4.43201 3.5679808,7.99998 8.0000008,7.99998 H 36.999999 l 15.999982,16.00001 V 277 L 36.999999,260.99999 H -3.0000072 c -4.43202,0 -8.0000008,-3.56798 -8.0000008,-8 z"/><path id="path1649" d="m -43.000008,227.00002 v 1.99997 c 0,4.43201 3.56798,8 8,8 h 8 V 235 h -8 c -4.43202,0 -8,-3.56798 -8,-7.99998 z m 79.999989,0 c 0,4.432 -3.56798,7.99998 -8,7.99998 h -40.000007 l -15.999982,16 v 1.99998 l 15.999982,-16 h 40.000007 c 4.43202,0 8,-3.56798 8,-8 z" style="display:inline;opacity:1;fill:#2ec27e;fill-opacity:1;fill-rule:evenodd;stroke:none;stroke-width:.0112982px;stroke-linecap:butt;stroke-linejoin:miter;stroke-opacity:1;enable-background:new"/><g id="g1233-4-3-1" transform="matrix(0.25,0,-0.03125,0.25,-53.374989,207)" style="display:inline;opacity:1;fill:#fff;enable-background:new"><rect id="rect1182-79-5-7" width="112" height="16" x="144" y="-44" rx="0" ry="0" style="opacity:1;vector-effect:none;fill:#fff;fill-opacity:1;stroke:none;stroke-width:3.43368721;stroke-linecap:butt;stroke-linejoin:miter;stroke-miterlimit:4;stroke-dasharray:none;stroke-dashoffset:0;stroke-opacity:0;marker:none;marker-start:none;marker-mid:none;marker-end:none;paint-order:normal"/><rect id="rect1182-7-3-6-8" width="112" height="16" x="144" y="4" rx="0" ry="0" style="display:inline;opacity:1;vector-effect:none;fill:#fff;fill-opacity:1;stroke:none;stroke-width:3.43368721;stroke-linecap:butt;stroke-linejoin:miter;stroke-miterlimit:4;stroke-dasharray:none;stroke-dashoffset:0;stroke-opacity:0;marker:none;marker-start:none;marker-mid:none;marker-end:none;paint-order:normal;enable-background:new"/><rect id="rect1182-9-9-2-5" width="128" height="16" x="-76" y="-232" rx="0" ry="0" transform="rotate(90)" style="display:inline;opacity:1;vector-effect:none;fill:#fff;fill-opacity:1;stroke:none;stroke-width:3.43368745;stroke-linecap:butt;stroke-linejoin:miter;stroke-miterlimit:4;stroke-dasharray:none;stroke-dashoffset:0;stroke-opacity:0;marker:none;marker-start:none;marker-mid:none;marker-end:none;paint-order:normal;enable-background:new"/><rect id="rect1182-7-2-0-9-7" width="128" height="16" x="-76" y="-184" rx="0" ry="0" transform="rotate(90)" style="display:inline;opacity:1;vector-effect:none;fill:#fff;fill-opacity:1;stroke:none;stroke-width:3.43368745;stroke-linecap:butt;stroke-linejoin:miter;stroke-miterlimit:4;stroke-dasharray:none;stroke-dashoffset:0;stroke-opacity:0;marker:none;marker-start:none;marker-mid:none;marker-end:none;paint-order:normal;enable-background:new"/></g></g></g></g></svg>