<svg xmlns="http://www.w3.org/2000/svg" xmlns:xlink="http://www.w3.org/1999/xlink" width="128pt" height="128pt" version="1.1" viewBox="0 0 128 128"><defs><linearGradient id="linear0" x1="88.596" x2="536.596" y1="-449.394" y2="-449.394" gradientTransform="matrix(0.232143,0,0,0.328947,-8.566925,263.826965)" gradientUnits="userSpaceOnUse"><stop offset="0" style="stop-color:#c0bfbc;stop-opacity:1"/><stop offset=".038" style="stop-color:#f6f5f4;stop-opacity:1"/><stop offset=".077" style="stop-color:#c0bfbc;stop-opacity:1"/><stop offset=".923" style="stop-color:#c0bfbc;stop-opacity:1"/><stop offset=".962" style="stop-color:#f6f5f4;stop-opacity:1"/><stop offset="1" style="stop-color:#c0bfbc;stop-opacity:1"/></linearGradient><linearGradient id="linear1" x1="62" x2="62" y1="284" y2="216.322" gradientTransform="matrix(1,0,0,1,4.000003,0)" gradientUnits="userSpaceOnUse"><stop offset="0" style="stop-color:#e5a50a;stop-opacity:1"/><stop offset="1" style="stop-color:#f6d32d;stop-opacity:1"/></linearGradient><linearGradient id="linear2" x1="70" x2="70" y1="280" y2="222" gradientTransform="matrix(1,0,0,1,4.000003,0)" gradientUnits="userSpaceOnUse"><stop offset="0" style="stop-color:#e01b24;stop-opacity:1"/><stop offset="1" style="stop-color:#f66151;stop-opacity:1"/></linearGradient><linearGradient id="linear3" x1="79" x2="95" y1="218" y2="218" gradientTransform="matrix(0.000000000000000061,-1,1,0.000000000000000061,-128.999997,137)" gradientUnits="userSpaceOnUse"><stop offset="0" style="stop-color:#e01b24;stop-opacity:1"/><stop offset="1" style="stop-color:#f8887c;stop-opacity:1"/></linearGradient><linearGradient id="linear4" x1="-72" x2="-72" y1="-262" y2="-189.054" gradientTransform="matrix(1,0,0,-1,130,20)" gradientUnits="userSpaceOnUse"><stop offset="0" style="stop-color:#1a5fb4;stop-opacity:1"/><stop offset="1" style="stop-color:#62a0ea;stop-opacity:1"/></linearGradient><linearGradient id="linear5" x1="55" x2="71" y1="198" y2="198" gradientTransform="matrix(0.000000000000000061,-1,1,0.000000000000000061,-160.999996,136)" gradientUnits="userSpaceOnUse"><stop offset="0" style="stop-color:#3584e4;stop-opacity:1"/><stop offset="1" style="stop-color:#98c1f1;stop-opacity:1"/></linearGradient><linearGradient id="linear6" x1="31" x2="47" y1="270" y2="270" gradientTransform="matrix(0.000000000000000061,-1,1,0.000000000000000061,-206.999996,65.000008)" gradientUnits="userSpaceOnUse"><stop offset="0" style="stop-color:#e5a50a;stop-opacity:1"/><stop offset="1" style="stop-color:#f8e45c;stop-opacity:1"/></linearGradient></defs><g id="surface102707"><path style="stroke:none;fill-rule:nonzero;fill:url(#linear0)" d="M 20 16 L 108 16 C 112.417969 16 116 19.582031 116 24 L 116 108 C 116 112.417969 112.417969 116 108 116 L 20 116 C 15.582031 116 12 112.417969 12 108 L 12 24 C 12 19.582031 15.582031 16 20 16 Z M 20 16"/><path style="stroke:none;fill-rule:nonzero;fill:#f6f5f4;fill-opacity:1" d="M 20 12 L 108 12 C 112.417969 12 116 15.582031 116 20 L 116 104 C 116 108.417969 112.417969 112 108 112 L 20 112 C 15.582031 112 12 108.417969 12 104 L 12 20 C 12 15.582031 15.582031 12 20 12 Z M 20 12"/><path style="stroke:none;fill-rule:nonzero;fill:#391f4d;fill-opacity:1" d="M 60 112 L 66 112 L 66 116 L 60 116 Z M 60 112"/><path style="fill:none;stroke-width:6;stroke-linecap:butt;stroke-linejoin:round;stroke:url(#linear1);stroke-miterlimit:4" d="M 67 196 L 67 288" transform="matrix(1,0,0,1,-4,-172)"/><path style="fill:none;stroke-width:6;stroke-linecap:butt;stroke-linejoin:miter;stroke:url(#linear2);stroke-miterlimit:4" d="M 67 284.9375 L 67 264 C 67 259.03125 71.03125 255 76 255 L 84 255 C 88.96875 255 93 250.96875 93 246 L 93 222" transform="matrix(1,0,0,1,-4,-172)"/><path style="stroke:none;fill-rule:nonzero;fill:#c01c28;fill-opacity:1" d="M 81 51 C 81 46.605469 84.605469 43 89 43 C 93.394531 43 97 46.605469 97 51 C 97 55.394531 93.394531 59 89 59 C 84.605469 59 81 55.394531 81 51 Z M 81 51"/><path style="stroke:none;fill-rule:nonzero;fill:url(#linear3)" d="M 81 50 C 81 45.605469 84.605469 42 89 42 C 93.394531 42 97 45.605469 97 50 C 97 54.394531 93.394531 58 89 58 C 84.605469 58 81 54.394531 81 50 Z M 81 50"/><path style="stroke:none;fill-rule:nonzero;fill:#fff;fill-opacity:1" d="M 91 50 C 91 51.105469 90.105469 52 89 52 C 87.894531 52 87 51.105469 87 50 C 87 48.894531 87.894531 48 89 48 C 90.105469 48 91 48.894531 91 50 Z M 91 50"/><path style="fill:none;stroke-width:6;stroke-linecap:butt;stroke-linejoin:round;stroke:url(#linear4);stroke-miterlimit:4" d="M 67 284 C 67 279.03125 62.96875 275 58 275 L 50 275 C 45.03125 275 41 270.96875 41 266 L 41 226 C 41 221.03125 45.03125 217 50 217 L 58 217 C 62.96875 217 67 212.96875 67 208 L 67 202" transform="matrix(1,0,0,1,-4,-172)"/><path style="stroke:none;fill-rule:nonzero;fill:#1a5fb4;fill-opacity:1" d="M 29 74 C 29 78.394531 32.605469 82 37 82 C 41.394531 82 45 78.394531 45 74 C 45 69.605469 41.394531 66 37 66 C 32.605469 66 29 69.605469 29 74 Z M 29 74"/><path style="stroke:none;fill-rule:nonzero;fill:url(#linear5)" d="M 29 73 C 29 77.394531 32.605469 81 37 81 C 41.394531 81 45 77.394531 45 73 C 45 68.605469 41.394531 65 37 65 C 32.605469 65 29 68.605469 29 73 Z M 29 73"/><path style="stroke:none;fill-rule:nonzero;fill:#fff;fill-opacity:1" d="M 39 73 C 39 74.105469 38.105469 75 37 75 C 35.894531 75 35 74.105469 35 73 C 35 71.894531 35.894531 71 37 71 C 38.105469 71 39 71.894531 39 73 Z M 39 73"/><path style="stroke:none;fill-rule:nonzero;fill:#12437e;fill-opacity:1" d="M 60 112 L 66 112 L 66 116 L 60 116 Z M 60 112"/><path style="stroke:none;fill-rule:nonzero;fill:#bc8808;fill-opacity:1" d="M 55 27 C 55 31.394531 58.605469 35 63 35 C 67.394531 35 71 31.394531 71 27 C 71 22.605469 67.394531 19 63 19 C 58.605469 19 55 22.605469 55 27 Z M 55 27"/><path style="stroke:none;fill-rule:nonzero;fill:url(#linear6)" d="M 55 26 C 55 30.394531 58.605469 34 63 34 C 67.394531 34 71 30.394531 71 26 C 71 21.605469 67.394531 18 63 18 C 58.605469 18 55 21.605469 55 26 Z M 55 26"/><path style="stroke:none;fill-rule:nonzero;fill:#fff;fill-opacity:1" d="M 65 26 C 65 27.105469 64.105469 28 63 28 C 61.894531 28 61 27.105469 61 26 C 61 24.894531 61.894531 24 63 24 C 64.105469 24 65 24.894531 65 26 Z M 65 26"/></g></svg>