<svg xmlns="http://www.w3.org/2000/svg" xmlns:svg="http://www.w3.org/2000/svg" xmlns:xlink="http://www.w3.org/1999/xlink" style="display:inline;enable-background:new" id="svg11300" width="128" height="128" version="1.0" viewBox="0 0 128 128"><title id="title4162">Adwaita Icon Template</title><defs id="defs3"><linearGradient id="linearGradient1093"><stop id="stop1089" offset="0" style="stop-color:#f6d32d;stop-opacity:1"/><stop id="stop1091" offset="1" style="stop-color:#f9f06b;stop-opacity:1"/></linearGradient><linearGradient id="linearGradient2619"><stop style="stop-color:#c4a000;stop-opacity:1" id="stop2615" offset="0"/><stop style="stop-color:#edd400;stop-opacity:0" id="stop2617" offset="1"/></linearGradient><linearGradient id="linearGradient1171"><stop id="stop1165" offset="0" style="stop-color:#40494c;stop-opacity:1"/><stop style="stop-color:#232829;stop-opacity:1" id="stop1167" offset=".572"/><stop id="stop1169" offset="1" style="stop-color:#000;stop-opacity:1"/></linearGradient><radialGradient id="radialGradient1073" cx="280" cy="16.275" r="160" fx="280" fy="16.275" gradientTransform="matrix(1,0,0,1.1758925,0,-118.6378)" gradientUnits="userSpaceOnUse" xlink:href="#linearGradient2619"/><radialGradient id="radialGradient1075" cx="265.282" cy="65.436" r="56" fx="265.282" fy="65.436" gradientTransform="matrix(1.3372396,0.35831226,-0.35833822,1.3373363,-60.03431,-112.79804)" gradientUnits="userSpaceOnUse" xlink:href="#linearGradient1171"/><linearGradient id="linearGradient1095" x1="99.846" x2="431.139" y1="91.301" y2="91.301" gradientTransform="translate(-246.01698,-371.37682)" gradientUnits="userSpaceOnUse" xlink:href="#linearGradient1093"/></defs><metadata id="metadata4"/><g style="display:inline" id="layer1" transform="translate(0,-172)"><g style="display:inline" id="layer9"><rect id="rect15122" width="104" height="104" x="12" y="184" rx="8" ry="8" style="display:inline;opacity:1;vector-effect:none;fill:#5e5c64;fill-opacity:1;stroke:none;stroke-width:.01200435px;stroke-linecap:butt;stroke-linejoin:miter;stroke-miterlimit:4;stroke-dasharray:none;stroke-dashoffset:0;stroke-opacity:1;marker:none;marker-start:none;marker-mid:none;marker-end:none;paint-order:normal;enable-background:new"/><circle id="path15129" cx="64" cy="236" r="60" style="display:inline;opacity:1;vector-effect:none;fill:#5e5c64;fill-opacity:1;stroke:none;stroke-width:.01200435px;stroke-linecap:butt;stroke-linejoin:miter;stroke-miterlimit:4;stroke-dasharray:none;stroke-dashoffset:0;stroke-opacity:1;marker:none;marker-start:none;marker-mid:none;marker-end:none;paint-order:normal;enable-background:new"/><g id="g1061" transform="matrix(0.26562505,0,0,0.26562505,-10.395244,230.82553)" style="display:inline;enable-background:new"><ellipse id="ellipse1049" cx="280.076" cy="19.474" rx="195.765" ry="195.771" style="display:inline;opacity:1;vector-effect:none;fill:#000;fill-opacity:1;stroke:none;stroke-width:.04607898px;stroke-linecap:butt;stroke-linejoin:miter;stroke-miterlimit:4;stroke-dasharray:none;stroke-dashoffset:0;stroke-opacity:1;marker:none;marker-start:none;marker-mid:none;marker-end:none;paint-order:normal;enable-background:new"/><ellipse style="display:inline;opacity:1;vector-effect:none;fill:#2a2a3b;fill-opacity:1;stroke:none;stroke-width:.04591639px;stroke-linecap:butt;stroke-linejoin:miter;stroke-miterlimit:4;stroke-dasharray:none;stroke-dashoffset:0;stroke-opacity:1;marker:none;marker-start:none;marker-mid:none;marker-end:none;paint-order:normal;enable-background:new" id="ellipse1051" cx="280.076" cy="19.475" rx="180.706" ry="180.712"/><ellipse id="ellipse1053" cx="19.475" cy="-280.076" rx="165.647" ry="165.653" transform="rotate(90)" style="display:inline;opacity:1;vector-effect:none;fill:url(#linearGradient1095);fill-opacity:1;stroke:none;stroke-width:.04678777px;stroke-linecap:butt;stroke-linejoin:miter;stroke-miterlimit:4;stroke-dasharray:none;stroke-dashoffset:0;stroke-opacity:1;marker:none;marker-start:none;marker-mid:none;marker-end:none;paint-order:normal;enable-background:new"/><circle id="circle1055" cx="280" cy="20.006" r="0" style="display:inline;opacity:1;vector-effect:none;fill:url(#radialGradient1073);fill-opacity:1;stroke:none;stroke-width:.04519285px;stroke-linecap:butt;stroke-linejoin:miter;stroke-miterlimit:4;stroke-dasharray:none;stroke-dashoffset:0;stroke-opacity:1;marker:none;marker-start:none;marker-mid:none;marker-end:none;paint-order:normal;enable-background:new"/><ellipse id="ellipse1057" cx="280.076" cy="19.475" rx="75.294" ry="75.299" style="display:inline;opacity:1;vector-effect:none;fill:#000;fill-opacity:1;stroke:none;stroke-width:.04726049px;stroke-linecap:butt;stroke-linejoin:miter;stroke-miterlimit:4;stroke-dasharray:none;stroke-dashoffset:0;stroke-opacity:1;marker:none;marker-start:none;marker-mid:none;marker-end:none;paint-order:normal;enable-background:new"/><ellipse id="ellipse1059" cx="265.491" cy="91.306" rx="60.235" ry="60.239" transform="rotate(-15)" style="display:inline;opacity:1;vector-effect:none;fill:url(#radialGradient1075);fill-opacity:1;stroke:none;stroke-width:.04861055px;stroke-linecap:butt;stroke-linejoin:miter;stroke-miterlimit:4;stroke-dasharray:none;stroke-dashoffset:0;stroke-opacity:1;marker:none;marker-start:none;marker-mid:none;marker-end:none;paint-order:normal;enable-background:new"/></g><path style="display:inline;opacity:1;vector-effect:none;fill:#000;fill-opacity:1;stroke:none;stroke-width:.00896273px;stroke-linecap:butt;stroke-linejoin:miter;stroke-miterlimit:4;stroke-dasharray:none;stroke-dashoffset:0;stroke-opacity:1;marker:none;marker-start:none;marker-mid:none;marker-end:none;paint-order:normal;enable-background:new" id="path1116-3" d="m 24.000056,278 a 1.9999996,2.0364742 0 0 1 -2,2.03648 1.9999996,2.0364742 0 0 1 -2,-2.03648 1.9999996,2.0364742 0 0 1 2,-2.03647 1.9999996,2.0364742 0 0 1 2,2.03647 z m 84.000004,0 a 1.9999996,2.0364742 0 0 1 -2,2.03648 1.9999996,2.0364742 0 0 1 -2,-2.03648 1.9999996,2.0364742 0 0 1 2,-2.03647 1.9999996,2.0364742 0 0 1 2,2.03647 z m 0,-84.00001 a 1.9999996,2.0364742 0 0 1 -2,2.03648 1.9999996,2.0364742 0 0 1 -2,-2.03648 1.9999996,2.0364742 0 0 1 2,-2.03647 1.9999996,2.0364742 0 0 1 2,2.03647 z m -84.000004,0 a 1.9999996,2.0364742 0 0 1 -2,2.03648 1.9999996,2.0364742 0 0 1 -2,-2.03648 1.9999996,2.0364742 0 0 1 2,-2.03647 1.9999996,2.0364742 0 0 1 2,2.03647 z"/></g></g></svg>