<svg xmlns="http://www.w3.org/2000/svg" xmlns:svg="http://www.w3.org/2000/svg" xmlns:xlink="http://www.w3.org/1999/xlink" style="display:inline;enable-background:new" id="svg11300" width="128" height="128" version="1.0" viewBox="0 0 128 128"><title id="title4162">Adwaita Icon Template</title><defs id="defs3"><linearGradient id="linearGradient950"><stop style="stop-color:#9a9996;stop-opacity:1" id="stop946" offset="0"/><stop style="stop-color:#77767b;stop-opacity:1" id="stop948" offset="1"/></linearGradient><linearGradient id="linearGradient1001" x1="1660.857" x2="1662.99" y1="806.297" y2="812.882" gradientTransform="matrix(1.8293937,-0.81599442,0.81599442,1.8293937,-3645.9624,100.02949)" gradientUnits="userSpaceOnUse" xlink:href="#linearGradient950"/></defs><metadata id="metadata4"/><g style="display:inline" id="layer1" transform="translate(0,-172)"><g style="display:inline" id="layer9"><path id="path945" d="M 123.99993,237 A 59.999995,59.999995 0 0 1 63.999945,297 59.999995,59.999995 0 0 1 3.9999381,237 59.999995,59.999995 0 0 1 63.999945,177.00001 59.999995,59.999995 0 0 1 123.99993,237 Z" style="display:inline;opacity:1;fill:#deddda;fill-opacity:1;stroke:none;stroke-width:.01129822px;stroke-linecap:butt;stroke-linejoin:miter;stroke-miterlimit:4;stroke-dasharray:none;stroke-dashoffset:0;stroke-opacity:1;marker:none;marker-start:none;marker-mid:none;marker-end:none;paint-order:normal;enable-background:new"/><rect style="display:inline;opacity:1;fill:#d5d3cf;fill-opacity:1;stroke:none;stroke-width:.01129822px;stroke-linecap:butt;stroke-linejoin:miter;stroke-miterlimit:4;stroke-dasharray:none;stroke-dashoffset:0;stroke-opacity:1;marker:none;marker-start:none;marker-mid:none;marker-end:none;paint-order:normal;enable-background:new" id="rect978" width="112" height="114" x="8" y="179" rx="56" ry="56"/><path style="display:inline;opacity:1;fill:#f6f5f4;fill-opacity:1;stroke:none;stroke-width:.01129822px;stroke-linecap:butt;stroke-linejoin:miter;stroke-miterlimit:4;stroke-dasharray:none;stroke-dashoffset:0;stroke-opacity:1;marker:none;marker-start:none;marker-mid:none;marker-end:none;paint-order:normal;enable-background:new" id="path981" d="M 123.99993,235 A 59.999995,59.999995 0 0 1 63.999945,294.99999 59.999995,59.999995 0 0 1 3.9999381,235 59.999995,59.999995 0 0 1 63.999945,175 59.999995,59.999995 0 0 1 123.99993,235 Z"/><circle style="display:inline;opacity:1;fill:#3d3846;fill-opacity:1;stroke:none;stroke-width:.01129822px;stroke-linecap:butt;stroke-linejoin:miter;stroke-miterlimit:4;stroke-dasharray:none;stroke-dashoffset:0;stroke-opacity:1;marker:none;marker-start:none;marker-mid:none;marker-end:none;paint-order:normal;enable-background:new" id="circle983" cx="64" cy="235" r="54"/><path id="path928" d="m 90.034858,207.99195 a 1.0016649,1.0016649 0 0 0 -0.77686,0.33008 L 67.283393,231.98707 A 5.9999995,5.9999995 0 0 0 61.70136,231.46461 L 47.480658,215.66382 a 2.0033298,2.0033298 0 0 0 -1.603515,-0.68212 2.0033298,2.0033298 0 0 0 -1.374025,3.36181 l 14.21924,15.79932 a 5.9999995,5.9999995 0 0 0 -0.209963,5.30517 5.9999995,5.9999995 0 0 0 2.404298,2.69922 l -11.8584,30.49366 a 1.0016649,1.0016649 0 1 0 1.86719,0.72558 l 11.85742,-30.49121 a 5.9999995,5.9999995 0 0 0 3.65332,-0.39209 5.9999995,5.9999995 0 0 0 3.035157,-7.92383 5.9999995,5.9999995 0 0 0 -0.725097,-1.2041 l 21.979495,-23.66992 a 1.0016649,1.0016649 0 0 0 -0.69092,-1.69336 z" style="color:#000;font-style:normal;font-variant:normal;font-weight:400;font-stretch:normal;font-size:medium;line-height:normal;font-family:sans-serif;font-variant-ligatures:normal;font-variant-position:normal;font-variant-caps:normal;font-variant-numeric:normal;font-variant-alternates:normal;font-feature-settings:normal;text-indent:0;text-align:start;text-decoration:none;text-decoration-line:none;text-decoration-style:solid;text-decoration-color:#000;letter-spacing:normal;word-spacing:normal;text-transform:none;writing-mode:lr-tb;direction:ltr;text-orientation:mixed;dominant-baseline:auto;baseline-shift:baseline;text-anchor:start;white-space:normal;shape-padding:0;clip-rule:nonzero;display:inline;overflow:visible;visibility:visible;opacity:.2;isolation:auto;mix-blend-mode:normal;color-interpolation:sRGB;color-interpolation-filters:linearRGB;solid-color:#000;solid-opacity:1;fill:#000;fill-opacity:1;fill-rule:evenodd;stroke:none;stroke-width:4.00625896;stroke-linecap:round;stroke-linejoin:miter;stroke-miterlimit:4;stroke-dasharray:none;stroke-dashoffset:0;stroke-opacity:1;color-rendering:auto;image-rendering:auto;shape-rendering:auto;text-rendering:auto;enable-background:new"/><path style="display:inline;fill:#c0bfbc;fill-rule:evenodd;stroke:url(#linearGradient1001);stroke-width:4.00625896;stroke-linecap:round;stroke-linejoin:miter;stroke-opacity:1;enable-background:new" id="path987" d="m 64.000045,235 -18,-20"/><path id="path989" d="M 64.000045,235 90.000048,207" style="display:inline;fill:none;fill-rule:evenodd;stroke:#fff;stroke-width:2.00312948;stroke-linecap:round;stroke-linejoin:miter;stroke-opacity:1;enable-background:new"/><path style="display:inline;fill:none;fill-rule:evenodd;stroke:#ed333b;stroke-width:2.00312948;stroke-linecap:round;stroke-linejoin:miter;stroke-opacity:1;enable-background:new" id="path991" d="m 64.000045,235 -14,36"/><circle id="circle993" cx="-37.28" cy="240.689" r="6" transform="rotate(-24.039088)" style="color:#000;clip-rule:nonzero;display:inline;overflow:visible;visibility:visible;opacity:1;color-interpolation:sRGB;color-interpolation-filters:linearRGB;fill:#d5d3cf;fill-opacity:1;fill-rule:nonzero;stroke:none;stroke-width:7.77220678;stroke-linecap:round;stroke-linejoin:round;stroke-miterlimit:4;stroke-dasharray:none;stroke-dashoffset:0;stroke-opacity:1;marker:none;color-rendering:auto;image-rendering:auto;shape-rendering:auto;text-rendering:auto;enable-background:accumulate"/><circle style="color:#000;clip-rule:nonzero;display:inline;overflow:visible;visibility:visible;opacity:1;color-interpolation:sRGB;color-interpolation-filters:linearRGB;fill:#131c1a;fill-opacity:1;fill-rule:nonzero;stroke:none;stroke-width:8.01251698;stroke-linecap:round;stroke-linejoin:round;stroke-miterlimit:4;stroke-dasharray:none;stroke-dashoffset:0;stroke-opacity:1;marker:none;color-rendering:auto;image-rendering:auto;shape-rendering:auto;text-rendering:auto;enable-background:accumulate" id="circle995" cx="64.029" cy="235" r="2.003"/><circle id="circle997" cx="64.029" cy="235" r="2" style="color:#000;clip-rule:nonzero;display:inline;overflow:visible;visibility:visible;opacity:1;color-interpolation:sRGB;color-interpolation-filters:linearRGB;fill:#131c1a;fill-opacity:1;fill-rule:nonzero;stroke:none;stroke-width:8.01251698;stroke-linecap:round;stroke-linejoin:round;stroke-miterlimit:4;stroke-dasharray:none;stroke-dashoffset:0;stroke-opacity:1;marker:none;color-rendering:auto;image-rendering:auto;shape-rendering:auto;text-rendering:auto;enable-background:accumulate"/><path id="circle1003" d="m 64.000045,181 a 54,54 0 0 0 -54,54 54,54 0 0 0 0.0415,1.1709 A 54,54 0 0 1 64.000045,183 54,54 0 0 1 117.95854,235.82813 54,54 0 0 0 118.00004,235 54,54 0 0 0 64.000035,181 Z" style="display:inline;opacity:.1;fill:#000;fill-opacity:1;stroke:none;stroke-width:.01129822px;stroke-linecap:butt;stroke-linejoin:miter;stroke-miterlimit:4;stroke-dasharray:none;stroke-dashoffset:0;stroke-opacity:1;marker:none;marker-start:none;marker-mid:none;marker-end:none;paint-order:normal;enable-background:new"/></g></g></svg>