<svg xmlns="http://www.w3.org/2000/svg" xmlns:svg="http://www.w3.org/2000/svg" id="svg4370" width="744.094" height="1052.362" version="1.1" viewBox="0 0 744.094 1052.362"><defs id="defs4372"><linearGradient id="linearGradient4418"><stop id="stop4420" offset="0" style="stop-color:#f4f4f4;stop-opacity:1"/><stop style="stop-color:#f4f4f4;stop-opacity:1" id="stop4422" offset=".2"/><stop id="stop4424" offset="1" style="stop-color:#bce8e7;stop-opacity:1"/></linearGradient><linearGradient id="killme"><stop id="stop5583-0-92-8-0-7-6" offset="0" style="stop-color:#fff;stop-opacity:1"/><stop style="stop-color:#ededed;stop-opacity:1" id="stop5585-4-7-2-7-9-9" offset=".4"/><stop id="stop5587-6-7-2-0-3-1" offset="1" style="stop-color:#41d3d3;stop-opacity:1"/></linearGradient></defs><metadata id="metadata4375"/><g id="layer1"><g id="unit-percent-symbolic" transform="translate(0.12253463,0)"><circle style="fill:none;fill-rule:evenodd;stroke:#bebebe;stroke-width:.89999998" id="circle7700" cx="340.187" cy="160.549" r="2.737"/><ellipse id="ellipse7702" cx="344.802" cy="168.16" rx="2.746" ry="2.75" style="fill:none;fill-rule:evenodd;stroke:#bebebe;stroke-width:.90353149"/><path style="fill:none;fill-rule:evenodd;stroke:#bebebe;stroke-width:.71361196;stroke-linecap:round" id="path7704" d="m 338,170.3622 9,-12"/><rect id="rect9598" width="13" height="16" x="336" y="156.362" style="fill:none;fill-opacity:.2118644;fill-rule:evenodd;stroke-width:0;stroke-linecap:round"/></g><g id="unit-degree-symbolic" transform="translate(696,388.00002)"><circle id="circle7708" cx="-335.813" cy="-227.451" r="2.737" style="fill:none;fill-rule:evenodd;stroke:#bebebe;stroke-width:.89999998"/><rect id="rect9609" width="13" height="16" x="-340" y="-231.638" style="fill:none;fill-opacity:.2118644;fill-rule:evenodd;stroke-width:0;stroke-linecap:round"/></g><g id="eyedropper-symbolic" transform="translate(20.625,-0.6875)"><path id="path4190" d="m 325.08221,181.00746 -9.39652,9.37044 c -0.0593,0.19104 -0.13503,0.70852 -0.31608,1.83278" style="fill:none;fill-rule:evenodd;stroke:#fff;stroke-width:.85961121;stroke-linecap:round;stroke-linejoin:round"/><path style="fill:none;fill-rule:evenodd;stroke:#fff;stroke-width:.85961121" id="path4194" d="m 330.01187,178.39722 c 0.50034,0.49896 0.72124,1.67539 0.18776,2.20739 l -1.42563,1.42167 m 1.23974,-3.62719 c -0.50034,-0.49896 -1.67528,-0.7145 -2.20877,-0.18249 l -1.42563,1.42168"/><path id="path4196" d="m 327.65392,180.74863 1.99551,2.00859 c 0.74951,0.75441 -0.0403,1.57988 -0.81777,0.81834 l -1.96434,-1.93901 m 0.79322,-0.88131 -2.00702,-1.95616 c -0.76156,-0.74225 -1.61765,0.0175 -0.854,0.79288 l 2.0678,2.04459" style="fill:none;fill-rule:evenodd;stroke:#fff;stroke-width:1.36000001"/><path style="fill:none;fill-rule:evenodd;stroke:#fff;stroke-width:.85961121;stroke-linecap:round;stroke-linejoin:round" id="path4198" d="m 327.40101,183.31981 -9.39654,9.37046 c -0.2369,0.13014 -0.79628,0.1733 -1.81098,0.35543"/><path id="path4210" d="m 316.6416,191.77213 0.0909,-0.72459 c 1.08126,-1.05238 2.4727,-2.56936 3.19187,-3.26065 l 1.33643,-6e-5 -3.91848,3.9076 z" style="fill:none;fill-rule:evenodd;stroke:#fff;stroke-width:1.05546677;stroke-linecap:square;stroke-linejoin:round"/></g></g></svg>