<svg xmlns="http://www.w3.org/2000/svg" xmlns:svg="http://www.w3.org/2000/svg" id="svg4370" width="13" height="16" version="1.1" viewBox="0 0 13 16"><metadata id="metadata4375"/><g id="layer1" transform="translate(-336.12253,-156.3622)"><path style="color:#000;font-style:normal;font-variant:normal;font-weight:400;font-stretch:normal;font-size:medium;line-height:normal;font-family:sans-serif;text-indent:0;text-align:start;text-decoration:none;text-decoration-line:none;text-decoration-style:solid;text-decoration-color:#000;letter-spacing:normal;word-spacing:normal;text-transform:none;direction:ltr;block-progression:tb;writing-mode:lr-tb;baseline-shift:baseline;text-anchor:start;white-space:normal;overflow:visible;color-interpolation-filters:linearRGB;solid-opacity:1;fill:#bebebe;fill-rule:evenodd;stroke-width:.89999998;image-rendering:auto;text-rendering:auto;enable-background:accumulate" id="circle7700" d="m 340.31055,157.36133 c -1.75494,0 -3.1875,1.43256 -3.1875,3.1875 0,1.75493 1.43256,3.1875 3.1875,3.1875 1.75493,0 3.18554,-1.43257 3.18554,-3.1875 0,-1.75494 -1.43061,-3.1875 -3.18554,-3.1875 z m 0,0.90039 c 1.26854,0 2.28711,1.01857 2.28711,2.28711 0,1.26854 -1.01857,2.28711 -2.28711,2.28711 -1.26854,0 -2.28711,-1.01857 -2.28711,-2.28711 0,-1.26854 1.01857,-2.28711 2.28711,-2.28711 z"/><path style="color:#000;font-style:normal;font-variant:normal;font-weight:400;font-stretch:normal;font-size:medium;line-height:normal;font-family:sans-serif;text-indent:0;text-align:start;text-decoration:none;text-decoration-line:none;text-decoration-style:solid;text-decoration-color:#000;letter-spacing:normal;word-spacing:normal;text-transform:none;direction:ltr;block-progression:tb;writing-mode:lr-tb;baseline-shift:baseline;text-anchor:start;white-space:normal;overflow:visible;color-interpolation-filters:linearRGB;solid-opacity:1;fill:#bebebe;fill-rule:evenodd;stroke-width:.90353149;image-rendering:auto;text-rendering:auto;enable-background:accumulate" id="ellipse7702" d="m 344.92578,164.95898 c -1.76098,0 -3.19922,1.43852 -3.19922,3.20118 0,1.76266 1.43824,3.20117 3.19922,3.20117 1.76099,0 3.19727,-1.43851 3.19727,-3.20117 0,-1.76266 -1.43628,-3.20118 -3.19727,-3.20118 z m 0,0.90235 c 1.27189,0 2.29297,1.02368 2.29297,2.29883 0,1.27515 -1.02108,2.29882 -2.29297,2.29882 -1.27188,0 -2.29492,-1.02367 -2.29492,-2.29882 0,-1.27515 1.02304,-2.29883 2.29492,-2.29883 z"/><path style="color:#000;font-style:normal;font-variant:normal;font-weight:400;font-stretch:normal;font-size:medium;line-height:normal;font-family:sans-serif;text-indent:0;text-align:start;text-decoration:none;text-decoration-line:none;text-decoration-style:solid;text-decoration-color:#000;letter-spacing:normal;word-spacing:normal;text-transform:none;direction:ltr;block-progression:tb;writing-mode:lr-tb;baseline-shift:baseline;text-anchor:start;white-space:normal;overflow:visible;color-interpolation-filters:linearRGB;solid-opacity:1;fill:#bebebe;fill-rule:evenodd;stroke-width:.71361196;stroke-linecap:round;image-rendering:auto;text-rendering:auto;enable-background:accumulate" id="path7704" d="m 347.09961,158.00195 a 0.35684166,0.35684166 0 0 0 -0.26172,0.14649 l -9,12 a 0.35684166,0.35684166 0 1 0 0.57031,0.42773 l 9,-12 a 0.35684166,0.35684166 0 0 0 -0.30859,-0.57422 z"/><path style="color:#000;font-style:normal;font-variant:normal;font-weight:400;font-stretch:normal;font-size:medium;line-height:normal;font-family:sans-serif;text-indent:0;text-align:start;text-decoration:none;text-decoration-line:none;text-decoration-style:solid;text-decoration-color:#000;letter-spacing:normal;word-spacing:normal;text-transform:none;direction:ltr;block-progression:tb;writing-mode:lr-tb;baseline-shift:baseline;text-anchor:start;white-space:normal;overflow:visible;color-interpolation-filters:linearRGB;solid-opacity:1;fill-rule:evenodd;stroke-width:0;stroke-linecap:round;image-rendering:auto;text-rendering:auto;enable-background:accumulate" id="rect9598" d="m 336.10742,156.3457 0,0.0156 0,16.01758 13.03125,0 0,-16.03321 -13.03125,0 z m 0.0312,0.0332 12.96875,0 0,15.96679 -12.96875,0 0,-15.96679 z"/></g></svg>