<svg xmlns="http://www.w3.org/2000/svg" xmlns:svg="http://www.w3.org/2000/svg" id="svg4370" width="13" height="16" version="1.1" viewBox="0 0 13 16"><metadata id="metadata4375"/><g id="layer1" transform="translate(-356,-156.3622)"><path style="color:#000;font-style:normal;font-variant:normal;font-weight:400;font-stretch:normal;font-size:medium;line-height:normal;font-family:sans-serif;text-indent:0;text-align:start;text-decoration:none;text-decoration-line:none;text-decoration-style:solid;text-decoration-color:#000;letter-spacing:normal;word-spacing:normal;text-transform:none;direction:ltr;block-progression:tb;writing-mode:lr-tb;baseline-shift:baseline;text-anchor:start;white-space:normal;overflow:visible;color-interpolation-filters:linearRGB;solid-opacity:1;fill:#bebebe;fill-rule:evenodd;stroke-width:.89999998;image-rendering:auto;text-rendering:auto;enable-background:accumulate" id="circle7708" d="m 360.1875,157.36133 c -1.75494,0 -3.1875,1.43256 -3.1875,3.1875 0,1.75493 1.43256,3.1875 3.1875,3.1875 1.75494,0 3.1875,-1.43257 3.1875,-3.1875 0,-1.75494 -1.43256,-3.1875 -3.1875,-3.1875 z m 0,0.90039 c 1.26854,0 2.28711,1.01857 2.28711,2.28711 0,1.26854 -1.01857,2.28711 -2.28711,2.28711 -1.26854,0 -2.28711,-1.01857 -2.28711,-2.28711 0,-1.26854 1.01857,-2.28711 2.28711,-2.28711 z"/><path style="color:#000;font-style:normal;font-variant:normal;font-weight:400;font-stretch:normal;font-size:medium;line-height:normal;font-family:sans-serif;text-indent:0;text-align:start;text-decoration:none;text-decoration-line:none;text-decoration-style:solid;text-decoration-color:#000;letter-spacing:normal;word-spacing:normal;text-transform:none;direction:ltr;block-progression:tb;writing-mode:lr-tb;baseline-shift:baseline;text-anchor:start;white-space:normal;overflow:visible;color-interpolation-filters:linearRGB;solid-opacity:1;fill-rule:evenodd;stroke-width:0;stroke-linecap:round;image-rendering:auto;text-rendering:auto;enable-background:accumulate" id="rect9609" d="m 355.98438,156.3457 0,0.0156 0,16.01758 13.03124,0 0,-16.03321 -13.03124,0 z m 0.0312,0.0332 12.96876,0 0,15.96679 -12.96876,0 0,-15.96679 z"/></g></svg>