<svg xmlns="http://www.w3.org/2000/svg" xmlns:svg="http://www.w3.org/2000/svg" id="svg7384" width="98" height="98" version="1.1"><metadata id="metadata90"/><title id="title9167">Gnome Symbolic Icon Theme</title><g id="layer3" transform="translate(222.14207,81.15625)"><rect style="color:#000;overflow:visible;fill:#fff;stroke:#729fcf;stroke-width:3;marker:none;enable-background:new" id="rect4225" width="95" height="95" x="-220.642" y="-79.656" rx="3.804" ry="3.804"/><path style="opacity:.98999999;fill:none;fill-rule:evenodd;stroke:#729fcf;stroke-width:4.06464338;stroke-linejoin:round" id="path4243-7" d="m -161.57744,-11.608975 0,10.952725 27.93536,0 0,-10.952725"/><path style="fill:#729fcf" id="path4241-5" d="m -204.29802,-73.151209 c -0.24579,-0.0092 -0.54628,-0.0037 -0.80584,0 -3.89331,0.05462 -9.12525,1.480319 -9.03712,6.05384 0.0921,4.772094 4.55104,3.421134 5.99318,4.727707 1.58086,1.377478 1.7818,2.124134 0.0771,4.999812 -1.39207,1.781165 -2.39965,3.720037 -2.15617,5.724231 0.26549,2.636108 1.49643,5.067839 5.98638,5.938545 7.19312,1.394917 14.81191,-3.366252 14.04491,-13.030201 -0.32925,-4.14816 -2.70454,-8.829645 -6.5126,-11.468502 -2.59737,-1.688749 -5.67257,-2.882378 -7.58989,-2.945432 z m -4.31708,2.825118 c 1.52591,0 2.76294,1.239046 2.76294,2.76749 0,1.528442 -1.23703,2.767469 -2.76294,2.767469 -1.52593,0 -2.76293,-1.239027 -2.76293,-2.767469 0,-1.528444 1.237,-2.76749 2.76293,-2.76749 z m 14.04492,8.244782 c 1.01271,0 1.84196,0.826031 1.84196,1.844986 0,1.018938 -0.82925,1.844988 -1.84196,1.844988 -1.01269,0 -1.84194,-0.82605 -1.84194,-1.844988 0,-1.018955 0.82925,-1.844986 1.84194,-1.844986 z m -1.1512,5.53496 c 1.01268,0 1.84194,0.826029 1.84194,1.844986 0,1.018938 -0.82926,1.844967 -1.84194,1.844967 -1.01271,0 -1.84197,-0.826029 -1.84197,-1.844967 0,-1.018957 0.82926,-1.844986 1.84197,-1.844986 z m -9.2098,3.689953 c 1.01268,0 1.84195,0.82605 1.84195,1.844988 0,1.018956 -0.82927,1.844986 -1.84195,1.844986 -1.0127,0 -1.84196,-0.82603 -1.84196,-1.844986 0,-1.018938 0.82926,-1.844988 1.84196,-1.844988 z m 5.52587,0 c 1.0127,0 1.84196,0.82605 1.84196,1.844988 0,1.018956 -0.82926,1.844986 -1.84196,1.844986 -1.0127,0 -1.84196,-0.82603 -1.84196,-1.844986 0,-1.018938 0.82926,-1.844988 1.84196,-1.844988 z"/><path style="fill:none;fill-rule:evenodd;stroke:#729fcf;stroke-width:5;stroke-linecap:round;stroke-linejoin:round" id="path4245-3-6-3" d="m -178.39804,-37.336794 11.4971,11.497099 m -12.50392,-0.942623 1.00682,-10.554476 10.95957,-1.1573"/></g><g style="display:none" id="layer1" transform="translate(222.14207,-0.84375)"><flowRoot style="font-size:25px;line-height:125%;font-family:Cantarell;-inkscape-font-specification:'Cantarell, Normal';letter-spacing:0;word-spacing:0;writing-mode:lr-tb;stroke-width:1px" id="flowRoot4214" xml:space="preserve"><flowRegion id="flowRegion4216"><rect style="font-style:normal;font-variant:normal;font-weight:400;font-stretch:normal;font-size:25px;line-height:125%;font-family:Cantarell;-inkscape-font-specification:'Cantarell, Normal';text-align:start;writing-mode:lr-tb;text-anchor:start" id="rect4218" width="392" height="52" x="-350" y="-163"/></flowRegion><flowPara id="flowPara4220"/></flowRoot><flowRoot style="font-size:40px;line-height:125%;font-family:Cantarell;-inkscape-font-specification:'Cantarell, Normal';letter-spacing:0;word-spacing:0;writing-mode:lr-tb;stroke-width:1px" id="flowRoot4222" xml:space="preserve"><flowRegion id="flowRegion4224"><rect id="rect4226" width="401" height="51" x="-125" y="-207"/></flowRegion><flowPara id="flowPara4228"/></flowRoot><flowRoot style="font-size:40px;line-height:125%;font-family:Cantarell;-inkscape-font-specification:'Cantarell, Normal';letter-spacing:0;word-spacing:0;writing-mode:lr-tb;fill:#000;stroke-width:1px" id="flowRoot4230" transform="translate(-82.269891,-320.09006)" xml:space="preserve"><flowRegion id="flowRegion4232"><rect id="rect4234" width="153" height="39" x="-163" y="207"/></flowRegion><flowPara style="font-size:25px;line-height:125%;-inkscape-font-specification:'Cantarell, Normal';text-align:center;writing-mode:lr-tb;text-anchor:middle" id="flowPara4236">palettes</flowPara></flowRoot><flowRoot style="font-size:40px;line-height:125%;font-family:Cantarell;-inkscape-font-specification:'Cantarell, Normal';letter-spacing:0;word-spacing:0;writing-mode:lr-tb;fill:#000;stroke-width:1px" id="flowRoot4238" transform="translate(-213.25629,-259.76506)" xml:space="preserve"><flowRegion id="flowRegion4240"><rect id="rect4242" width="153" height="39" x="-163" y="207"/></flowRegion><flowPara style="font-size:25px;line-height:125%;-inkscape-font-specification:'Cantarell, Normal';text-align:center;writing-mode:lr-tb;text-anchor:middle" id="flowPara4244">save</flowPara></flowRoot><flowRoot style="font-size:40px;line-height:125%;font-family:Cantarell;-inkscape-font-specification:'Cantarell, Normal';letter-spacing:0;word-spacing:0;writing-mode:lr-tb;fill:#000;stroke-width:1px" id="flowRoot4246" transform="translate(-83.970864,-256.4255)" xml:space="preserve"><flowRegion id="flowRegion4248"><rect id="rect4250" width="153" height="39" x="-163" y="207"/></flowRegion><flowPara style="font-size:25px;line-height:125%;-inkscape-font-specification:'Cantarell, Normal';text-align:center;writing-mode:lr-tb;text-anchor:middle" id="flowPara4252">load</flowPara></flowRoot><flowRoot style="font-size:40px;line-height:125%;font-family:Cantarell;-inkscape-font-specification:'Cantarell, Normal';letter-spacing:0;word-spacing:0;writing-mode:lr-tb;fill:#000;stroke-width:1px" id="flowRoot4358" transform="translate(487,-314.56579)" xml:space="preserve"><flowRegion id="flowRegion4360"><rect id="rect4362" width="153" height="39" x="-163" y="207"/></flowRegion><flowPara style="font-size:25px;line-height:125%;-inkscape-font-specification:'Cantarell, Normal';text-align:center;writing-mode:lr-tb;text-anchor:middle" id="flowPara4364">view mode</flowPara></flowRoot><flowRoot style="font-size:40px;line-height:125%;font-family:Cantarell;-inkscape-font-specification:'Cantarell, Normal';letter-spacing:0;word-spacing:0;writing-mode:lr-tb;fill:#000;stroke-width:1px" id="flowRoot4366" transform="translate(535,-254.24079)" xml:space="preserve"><flowRegion id="flowRegion4368"><rect id="rect4370" width="153" height="39" x="-163" y="207"/></flowRegion><flowPara style="font-size:25px;line-height:125%;-inkscape-font-specification:'Cantarell, Normal';text-align:center;writing-mode:lr-tb;text-anchor:middle" id="flowPara4372">swatchs</flowPara></flowRoot><flowRoot style="font-size:40px;line-height:125%;font-family:Cantarell;-inkscape-font-specification:'Cantarell, Normal';letter-spacing:0;word-spacing:0;writing-mode:lr-tb;fill:#000;stroke-width:1px" id="flowRoot4374" transform="translate(440,-254.21579)" xml:space="preserve"><flowRegion id="flowRegion4376"><rect id="rect4378" width="153" height="39" x="-163" y="207"/></flowRegion><flowPara style="font-size:25px;line-height:125%;-inkscape-font-specification:'Cantarell, Normal';text-align:center;writing-mode:lr-tb;text-anchor:middle" id="flowPara4380">list</flowPara></flowRoot><flowRoot style="font-size:40px;line-height:125%;font-family:Cantarell;-inkscape-font-specification:'Cantarell, Normal';letter-spacing:0;word-spacing:0;writing-mode:lr-tb;fill:#000;stroke-width:1px" id="flowRoot4223" transform="translate(62.974761,-256.4255)" xml:space="preserve"><flowRegion id="flowRegion4225"><rect id="rect4227" width="177.307" height="35.685" x="-163" y="207"/></flowRegion><flowPara style="font-size:25px;line-height:125%;-inkscape-font-specification:'Cantarell, Normal';text-align:center;writing-mode:lr-tb;text-anchor:middle" id="flowPara4229">from document</flowPara></flowRoot></g></svg>