<svg xmlns="http://www.w3.org/2000/svg" xmlns:svg="http://www.w3.org/2000/svg" id="svg7384" width="98" height="98" version="1.1"><metadata id="metadata90"/><title id="title9167">Gnome Symbolic Icon Theme</title><g id="layer3" transform="translate(96.629605,80.788552)"><rect style="color:#000;overflow:visible;fill:#fff;stroke:#729fcf;stroke-width:3;marker:none;enable-background:new" id="rect4249" width="95" height="95" x="-95.13" y="-79.289" rx="3.804" ry="3.804"/><rect style="color:#000;overflow:visible;color-interpolation-filters:linearRGB;solid-opacity:1;fill:none;stroke-width:.99999976;marker:none;marker-start:none;marker-mid:none;marker-end:none;image-rendering:auto;text-rendering:auto;enable-background:accumulate" id="rect4251" width="98" height="98" x="-96.63" y="-80.789"/><path style="fill:#729fcf" id="path4253" d="m -78.78555,-72.783079 c -0.24579,-0.01 -0.54628,-0.004 -0.80584,0 -3.89331,0.0546 -9.12525,1.48032 -9.03712,6.05383 0.0921,4.77211 4.55104,3.42115 5.99318,4.72772 1.58086,1.37747 1.7818,2.12413 0.0771,4.99981 -1.39207,1.78117 -2.39965,3.72004 -2.15616,5.72423 0.26549,2.63612 1.49642,5.06783 5.98637,5.93854 7.19313,1.39492 14.81191,-3.36624 14.04491,-13.03019 -0.32924,-4.14817 -2.70453,-8.82965 -6.5126,-11.46851 -2.59738,-1.68874 -5.67258,-2.88238 -7.58989,-2.94543 z m -4.31708,2.82511 c 1.52592,0 2.76294,1.23906 2.76294,2.76749 0,1.52845 -1.23702,2.76748 -2.76294,2.76748 -1.52593,0 -2.76293,-1.23903 -2.76293,-2.76748 0,-1.52843 1.237,-2.76749 2.76293,-2.76749 z m 14.04491,8.24478 c 1.01271,0 1.84196,0.82604 1.84196,1.845 0,1.01893 -0.82925,1.84498 -1.84196,1.84498 -1.01268,0 -1.84194,-0.82605 -1.84194,-1.84498 0,-1.01896 0.82926,-1.845 1.84194,-1.845 z m -1.1512,5.53497 c 1.01268,0 1.84194,0.82603 1.84194,1.84499 0,1.01893 -0.82926,1.84496 -1.84194,1.84496 -1.0127,0 -1.84196,-0.82603 -1.84196,-1.84496 0,-1.01896 0.82926,-1.84499 1.84196,-1.84499 z m -9.20979,3.68995 c 1.01268,0 1.84195,0.82605 1.84195,1.845 0,1.01895 -0.82927,1.84498 -1.84195,1.84498 -1.0127,0 -1.84196,-0.82603 -1.84196,-1.84498 0,-1.01895 0.82926,-1.845 1.84196,-1.845 z m 5.52587,0 c 1.01269,0 1.84196,0.82605 1.84196,1.845 0,1.01895 -0.82927,1.84498 -1.84196,1.84498 -1.01271,0 -1.84196,-0.82603 -1.84196,-1.84498 0,-1.01895 0.82925,-1.845 1.84196,-1.845 z"/><path style="color:#000;font-style:normal;font-variant:normal;font-weight:400;font-stretch:normal;font-size:medium;line-height:normal;font-family:Sans;-inkscape-font-specification:Sans;text-indent:0;text-align:start;text-decoration:none;text-decoration-line:none;letter-spacing:normal;word-spacing:normal;text-transform:none;direction:ltr;block-progression:tb;writing-mode:lr-tb;baseline-shift:baseline;text-anchor:start;overflow:visible;fill:#729fcf;stroke-width:1.99999988;enable-background:accumulate" id="path4257" d="m -29.00434,-20.78749 a 2.0001292,2.0001292 0 0 0 -1.62495,1.99993 l 0,25.99909 a 2.0001292,2.0001292 0 0 0 1.99993,1.99992 l 19.99929,0 a 2.0001292,2.0001292 0 0 0 1.99993,-1.99992 l 0,-18.87434 a 2.0001292,2.0001292 0 0 0 -0.56248,-1.43745 l -7.12474,-7.12475 a 2.0001292,2.0001292 0 0 0 -1.43745,-0.56248 l -12.87455,0 a 2.0001292,2.0001292 0 0 0 -0.18739,0 2.0001292,2.0001292 0 0 0 -0.18739,0 z m 2.37491,3.99986 9.99965,0 0,5.99979 5.99978,0 0,15.99944 -15.99943,0 0,-21.99923 z"/><path style="fill:none;fill-rule:evenodd;stroke:#729fcf;stroke-width:5;stroke-linecap:round;stroke-linejoin:round" id="path4245-3" d="M -52.88556,-36.969096 -41.38847,-25.472 m -12.50391,-0.942621 1.00682,-10.554475 10.95956,-1.157299"/></g><g style="display:none" id="layer1" transform="translate(96.629605,-1.2114483)"><flowRoot style="font-size:25px;line-height:125%;font-family:Cantarell;-inkscape-font-specification:'Cantarell, Normal';letter-spacing:0;word-spacing:0;writing-mode:lr-tb;stroke-width:1px" id="flowRoot4214" xml:space="preserve"><flowRegion id="flowRegion4216"><rect style="font-style:normal;font-variant:normal;font-weight:400;font-stretch:normal;font-size:25px;line-height:125%;font-family:Cantarell;-inkscape-font-specification:'Cantarell, Normal';text-align:start;writing-mode:lr-tb;text-anchor:start" id="rect4218" width="392" height="52" x="-350" y="-163"/></flowRegion><flowPara id="flowPara4220"/></flowRoot><flowRoot style="font-size:40px;line-height:125%;font-family:Cantarell;-inkscape-font-specification:'Cantarell, Normal';letter-spacing:0;word-spacing:0;writing-mode:lr-tb;stroke-width:1px" id="flowRoot4222" xml:space="preserve"><flowRegion id="flowRegion4224"><rect id="rect4226" width="401" height="51" x="-125" y="-207"/></flowRegion><flowPara id="flowPara4228"/></flowRoot><flowRoot style="font-size:40px;line-height:125%;font-family:Cantarell;-inkscape-font-specification:'Cantarell, Normal';letter-spacing:0;word-spacing:0;writing-mode:lr-tb;fill:#000;stroke-width:1px" id="flowRoot4230" transform="translate(-82.269891,-320.09006)" xml:space="preserve"><flowRegion id="flowRegion4232"><rect id="rect4234" width="153" height="39" x="-163" y="207"/></flowRegion><flowPara style="font-size:25px;line-height:125%;-inkscape-font-specification:'Cantarell, Normal';text-align:center;writing-mode:lr-tb;text-anchor:middle" id="flowPara4236">palettes</flowPara></flowRoot><flowRoot style="font-size:40px;line-height:125%;font-family:Cantarell;-inkscape-font-specification:'Cantarell, Normal';letter-spacing:0;word-spacing:0;writing-mode:lr-tb;fill:#000;stroke-width:1px" id="flowRoot4238" transform="translate(-213.25629,-259.76506)" xml:space="preserve"><flowRegion id="flowRegion4240"><rect id="rect4242" width="153" height="39" x="-163" y="207"/></flowRegion><flowPara style="font-size:25px;line-height:125%;-inkscape-font-specification:'Cantarell, Normal';text-align:center;writing-mode:lr-tb;text-anchor:middle" id="flowPara4244">save</flowPara></flowRoot><flowRoot style="font-size:40px;line-height:125%;font-family:Cantarell;-inkscape-font-specification:'Cantarell, Normal';letter-spacing:0;word-spacing:0;writing-mode:lr-tb;fill:#000;stroke-width:1px" id="flowRoot4246" transform="translate(-83.970864,-256.4255)" xml:space="preserve"><flowRegion id="flowRegion4248"><rect id="rect4250" width="153" height="39" x="-163" y="207"/></flowRegion><flowPara style="font-size:25px;line-height:125%;-inkscape-font-specification:'Cantarell, Normal';text-align:center;writing-mode:lr-tb;text-anchor:middle" id="flowPara4252">load</flowPara></flowRoot><flowRoot style="font-size:40px;line-height:125%;font-family:Cantarell;-inkscape-font-specification:'Cantarell, Normal';letter-spacing:0;word-spacing:0;writing-mode:lr-tb;fill:#000;stroke-width:1px" id="flowRoot4358" transform="translate(487,-314.56579)" xml:space="preserve"><flowRegion id="flowRegion4360"><rect id="rect4362" width="153" height="39" x="-163" y="207"/></flowRegion><flowPara style="font-size:25px;line-height:125%;-inkscape-font-specification:'Cantarell, Normal';text-align:center;writing-mode:lr-tb;text-anchor:middle" id="flowPara4364">view mode</flowPara></flowRoot><flowRoot style="font-size:40px;line-height:125%;font-family:Cantarell;-inkscape-font-specification:'Cantarell, Normal';letter-spacing:0;word-spacing:0;writing-mode:lr-tb;fill:#000;stroke-width:1px" id="flowRoot4366" transform="translate(535,-254.24079)" xml:space="preserve"><flowRegion id="flowRegion4368"><rect id="rect4370" width="153" height="39" x="-163" y="207"/></flowRegion><flowPara style="font-size:25px;line-height:125%;-inkscape-font-specification:'Cantarell, Normal';text-align:center;writing-mode:lr-tb;text-anchor:middle" id="flowPara4372">swatchs</flowPara></flowRoot><flowRoot style="font-size:40px;line-height:125%;font-family:Cantarell;-inkscape-font-specification:'Cantarell, Normal';letter-spacing:0;word-spacing:0;writing-mode:lr-tb;fill:#000;stroke-width:1px" id="flowRoot4374" transform="translate(440,-254.21579)" xml:space="preserve"><flowRegion id="flowRegion4376"><rect id="rect4378" width="153" height="39" x="-163" y="207"/></flowRegion><flowPara style="font-size:25px;line-height:125%;-inkscape-font-specification:'Cantarell, Normal';text-align:center;writing-mode:lr-tb;text-anchor:middle" id="flowPara4380">list</flowPara></flowRoot><flowRoot style="font-size:40px;line-height:125%;font-family:Cantarell;-inkscape-font-specification:'Cantarell, Normal';letter-spacing:0;word-spacing:0;writing-mode:lr-tb;fill:#000;stroke-width:1px" id="flowRoot4223" transform="translate(62.974761,-256.4255)" xml:space="preserve"><flowRegion id="flowRegion4225"><rect id="rect4227" width="177.307" height="35.685" x="-163" y="207"/></flowRegion><flowPara style="font-size:25px;line-height:125%;-inkscape-font-specification:'Cantarell, Normal';text-align:center;writing-mode:lr-tb;text-anchor:middle" id="flowPara4229">from document</flowPara></flowRoot></g></svg>